<?xml version="1.0" encoding="utf-8"?>
<!-- Generator: Adobe Illustrator 24.0.2, SVG Export Plug-In . SVG Version: 6.00 Build 0)  -->
<svg version="1.1" id="Layer_1" xmlns="http://www.w3.org/2000/svg" xmlns:xlink="http://www.w3.org/1999/xlink" x="0px" y="0px"
	 viewBox="0 0 61.9 64" style="enable-background:new 0 0 61.9 64;" xml:space="preserve">
<g>
	<path d="M29.9,42.9c3.8,0,6.7-4.8,6.7-10.9s-2.9-10.9-6.7-10.9s-6.7,4.8-6.7,10.9S26.1,42.9,29.9,42.9z M29.9,24
		c1.6,0,3.8,3.1,3.8,8s-2.2,8-3.8,8c-1.6,0-3.8-3.1-3.8-8S28.3,24,29.9,24z"/>
	<path d="M39.4,61.1h0.4V47.9c0-4.6,0.8-9.3,1.6-13.8c0.2-0.9,0.3-1.8,0.5-2.7c0-0.2,0-0.4,0-0.5v-2.5c0-3.3-1.6-6.5-4.3-8.4
		L34.5,9.7V7c0.6-0.2,1.1-0.7,1.1-1.4V1.4c0-0.8-0.7-1.4-1.4-1.4h-8.4c-0.8,0-1.4,0.6-1.4,1.4v4.2c0,0.7,0.4,1.2,1.1,1.4v2.6
		l-3.1,10.2c-2.7,2-4.3,5.1-4.3,8.4v2.5c0,0.2,0,0.4,0,0.6c0.2,0.9,0.3,1.8,0.5,2.7c0.8,4.5,1.6,9.2,1.6,13.8v13.2h0
		c-0.8,0-1.4,0.7-1.4,1.4S19.2,64,20,64h1.4h16.9h1.1c0.8,0,1.4-0.7,1.4-1.4S40.2,61.1,39.4,61.1z M32.7,4.2h-5.5V2.9h5.5V4.2z
		 M21.3,33.6l-0.1-0.3c-0.1-0.8-0.3-1.6-0.4-2.5v-2.5c0-2.6,1.3-4.9,3.4-6.3c0.3-0.2,0.5-0.5,0.6-0.8l3.3-10.9
		c0-0.1,0.1-0.3,0.1-0.4V7.1h3.4v2.8c0,0.1,0,0.3,0.1,0.4L35,21.2c0.1,0.3,0.3,0.6,0.6,0.8c2.1,1.4,3.4,3.7,3.4,6.3l0,2.6
		c-0.1,0.8-0.3,1.6-0.4,2.4l-0.1,0.3c-0.8,4.6-1.6,9.5-1.6,14.3v13.2h-14V47.9C22.9,43,22.1,38.2,21.3,33.6z"/>
</g>
</svg>
