<svg id="Layer_1" data-name="Layer 1" xmlns="http://www.w3.org/2000/svg" viewBox="0 0 61.9 64"><title>aperitifs</title><path d="M35.64,30.68a9.86,9.86,0,0,0-6.77-9.4l-2.68-.89V18.31a18,18,0,0,0-.55-4.44l-1.3-5.21a2.57,2.57,0,0,0,.8-1.87V2.59A2.59,2.59,0,0,0,22.55,0h-8.4a2.6,2.6,0,0,0-2.6,2.59v4.2a2.61,2.61,0,0,0,.8,1.87l-1.3,5.21a18.49,18.49,0,0,0-.55,4.44v2.08l-2.68.89a9.89,9.89,0,0,0-6.77,9.4A96.9,96.9,0,0,0,1.7,41.85L3.08,54.54,1.5,56.12a1.52,1.52,0,0,0-.45,1.09v4.2A2.6,2.6,0,0,0,3.64,64H33.05a2.6,2.6,0,0,0,2.59-2.59v-4.2a1.52,1.52,0,0,0-.45-1.09l-1.58-1.58L35,41.87A97.38,97.38,0,0,0,35.64,30.68ZM14.64,6.3V3.09h7.42V6.3ZM31.92,41.52l-1.3,12H7.35v3.09h24l1.2,1.19v3.07H4.14V57.84L5.78,56.2a1.53,1.53,0,0,0,.45-1.26L4.77,41.51a93.42,93.42,0,0,1-.63-10.84A6.77,6.77,0,0,1,8.8,24.21L12.53,23a1.55,1.55,0,0,0,1.06-1.46V18.31a15.42,15.42,0,0,1,.45-3.7l1.31-5.22h6l.28,1.11H15.75v3.09h6.64l.26,1a15.43,15.43,0,0,1,.46,3.7V20H14.7V23h9.7l3.49,1.17a6.79,6.79,0,0,1,4.67,6.47A93.56,93.56,0,0,1,31.92,41.52Z" transform="translate(-1.05 0)"/><path d="M28.55,28.55a20.87,20.87,0,0,0-20.4,0,1.54,1.54,0,0,0-.78,1.59l3.15,20a1.54,1.54,0,0,0,1.53,1.3h12.6a1.54,1.54,0,0,0,1.52-1.3l3.15-20A1.55,1.55,0,0,0,28.55,28.55ZM13.36,48.31,10.59,30.76a18,18,0,0,1,15.51,0L23.33,48.31Z" transform="translate(-1.05 0)"/><path d="M23.63,31a16.9,16.9,0,0,0-10.57,0l-.47.16,1,2.93.47-.16a13.84,13.84,0,0,1,8.63,0l.47.16,1-2.93Z" transform="translate(-1.05 0)"/><rect x="13.65" y="44.11" width="7.29" height="3.08"/><polygon points="19.7 33.71 17.3 36.12 14.89 33.71 12.71 35.89 15.12 38.3 12.71 40.71 14.89 42.89 17.3 40.48 19.7 42.89 21.89 40.71 19.48 38.3 21.89 35.89 19.7 33.71"/><path d="M61.41,39.91h-21a1.54,1.54,0,0,0-1.54,1.54V57.21a1.6,1.6,0,0,0,.11.57L41.07,63a1.54,1.54,0,0,0,1.43,1H59.31a1.54,1.54,0,0,0,1.43-1l2.1-5.25a1.65,1.65,0,0,0,.11-.57V41.45A1.54,1.54,0,0,0,61.41,39.91ZM43.06,58.75v1l-.38-1Zm0-5.25v2.16H41.94V53.5Zm12.6-9.39v6.3H46.14v-2.1H43.06v2.1H41.94V43H59.86v7.42H58.75v-6.3Zm0,9.39v2.16H46.14V53.5Zm0,5.25v2.16H46.14V58.75Zm4.2-5.25v2.16H58.75V53.5Zm-.73,5.25-.38,1v-1Z" transform="translate(-1.05 0)"/><rect x="42.01" y="44.11" width="3.08" height="3.08"/></svg>