<?xml version="1.0" encoding="utf-8"?>
<!-- Generator: Adobe Illustrator 24.0.2, SVG Export Plug-In . SVG Version: 6.00 Build 0)  -->
<svg version="1.1" id="Layer_1" xmlns="http://www.w3.org/2000/svg" xmlns:xlink="http://www.w3.org/1999/xlink" x="0px" y="0px"
	 viewBox="0 0 64 64" style="enable-background:new 0 0 64 64;" xml:space="preserve">
<g>
	<path d="M10.3,27.4c1.4,0.4,3.3,0.4,4.2,1.7c1.2,1.5,0.7,4.1,0.4,5.8c-0.4,3.2-0.6,6.8,1.5,9.5c2,2.5,5.2,2.5,7.2,0
		c2.3-2.8,2.1-6.5,1.6-9.9c-0.1-1.2-0.7-2.8,0.8-3.5c0.7-0.3,1.8-0.1,2.5-0.3c1.7-0.1,3.2-0.7,4.6-1.7c0.9-0.7,1.6-1.5,2.1-2.3
		c1.9,0.1,3.8,0,5.5-0.6c0,0.4-0.1,28.9-0.1,29.2c-0.3,2.4-3,3.4-5,4.1c-4.8,1.7-10.2,1.5-15.1,0.7c-4.5-0.7-9.8-1.7-10-7.3
		c0.1-1.9,0.1-3.9,0.1-5.8c-0.1-5.7-0.1-11.5-0.3-17.2c-0.1-1.7-2.5-1.7-2.6,0c-0.1,5.5-0.1,11.1-0.1,16.6c0,2.2,0,4.4,0,6.6
		c0.1,5.2,3.4,8.1,8.1,9.5c4.9,1.4,10.5,1.8,15.5,1.2c3.7-0.4,11.5-2,12.4-6.5c0.1-0.3,0.1-0.5,0.1-0.8c9-2.7,16.7-10,16.4-19.9
		c-0.1-4.1-2.5-8.4-6.3-10.3c-2.8-1.3-6.8-1.7-10-0.7c0-0.3,0-0.6,0-0.9c0.1-0.1,0.4-0.3,0.5-0.4c2-2.2,2.6-5.4,2-8.2
		C45,10.2,38.3,7.8,33,9.8c-2.7-2.6-6.3-4.1-10.1-3.9c-3.2,0.2-7.1,1.7-9.2,4.4c-3,0-6,1.5-7.9,3.8C1.8,19,4.3,25.9,10.3,27.4z
		 M43.8,34.3c2.9-0.5,6.6-1.4,7.5,2.4c0.7,3-1.5,7.4-4.7,8c-1.9,0.4-0.9,3.5,1.1,2.6c4.1-1.9,7.1-6.7,6-11.3
		c-1.2-4.9-5.9-5.1-10-4.2c0-1.1,0-2.1,0-3.2c3.1-0.7,6.4-1.2,9.2,0.7c3.1,2,4.1,6,3.5,9.5c-1.2,7.1-6.3,11.6-12.8,13.3
		C43.8,52.1,43.8,36.8,43.8,34.3z M10,14.9c1.3-0.9,2.9-1.4,4.4-1.2c1.5,0.1,2.5,1.1,3.9,1.3c0.6,0.1,1.2-0.2,1.2-0.9
		c-0.1-1.5-1-2.4-2.3-3c1.7-1.2,3.5-2.2,6-2.3c3.3-0.1,6.3,1.5,8.4,3.9c0.4,0.5,1.3,0.5,1.9,0.2c3.4-1.8,9.3-0.4,9.9,3.9
		c0.5,4.4-3.3,5.7-6.9,5.7c-0.1-0.8-0.3-1.7-0.7-2.5c-0.9-2.2-4.2-0.3-3.2,1.9c0.8,1.7-0.1,3.6-1.7,4.5c-1.4,0.9-3,0.8-4.5,1
		c-2.5,0.4-4.3,1.8-4.4,4.4c-0.1,1.7,0.4,3.4,0.6,5.1c0.1,1.6,0.2,4.8-1.5,5.7c-2.5,1.5-3-3.6-3-4.7c0-1.7,0.3-3.4,0.4-5.1
		c0.2-2.6-0.1-5.4-2.3-7.1c-2.2-1.7-5.6-1.2-7.5-3.1C6,20.4,7.4,16.6,10,14.9z"/>
	<path d="M33.5,54.2c0.4-3.7,0.4-18.1-0.4-21.1c-0.2-0.9-1.7-0.9-1.9,0c-0.7,3-0.5,17.4-0.1,21.1C31.4,55.8,33.4,55.8,33.5,54.2z"/>
	<path d="M19.9,55.2c0.8-0.7,0.4-6.2,0-7.3c-0.4-0.9-1.6-0.9-2,0c-0.4,1.2-0.8,6.8,0,7.3C18.6,55.7,19.2,55.7,19.9,55.2z"/>
	<path d="M9.8,3.3c0.4-0.8,0.3-2,0-2.8c-0.2-0.7-1.2-0.7-1.4,0c-0.3,0.9-0.4,2,0,2.8C8.7,3.8,9.6,3.8,9.8,3.3z"/>
	<path d="M8.4,5.8c-0.3,0.9-0.4,2,0,2.8c0.2,0.5,1.2,0.5,1.4,0c0.4-0.8,0.3-2,0-2.8C9.6,5.1,8.7,5.1,8.4,5.8z"/>
	<path d="M10.4,5.2c0.8,0.4,2,0.3,2.8,0c0.7-0.2,0.7-1.2,0-1.4c-0.9-0.3-2-0.4-2.8,0C9.8,4.1,9.8,5,10.4,5.2z"/>
	<path d="M5.1,5.2c0.8,0.4,2,0.3,2.8,0c0.7-0.2,0.7-1.2,0-1.4c-0.9-0.3-2-0.4-2.8,0C4.6,4.1,4.6,5,5.1,5.2z"/>
	<circle cx="18.9" cy="2.9" r="1.2"/>
	<path d="M35.1,6.2c0.7,0,1.2-0.6,1.2-1.2s-0.6-1.2-1.2-1.2s-1.2,0.6-1.2,1.2C33.8,5.7,34.3,6.2,35.1,6.2z"/>
	<circle cx="41.6" cy="2.1" r="1.2"/>
</g>
</svg>
