<?xml version="1.0" encoding="utf-8"?>
<!-- Generator: Adobe Illustrator 24.0.2, SVG Export Plug-In . SVG Version: 6.00 Build 0)  -->
<svg version="1.1" id="Layer_1" xmlns="http://www.w3.org/2000/svg" xmlns:xlink="http://www.w3.org/1999/xlink" x="0px" y="0px"
	 viewBox="0 0 64 64" style="enable-background:new 0 0 64 64;" xml:space="preserve">
<g transform="translate(131.02975,-196.70833)">
	<path d="M-99,260.7 M-99,259.4"/>
</g>
<g>
	<path d="M43.8,26c0.1-0.1,0.1-0.2,0.1-0.3c0.1-0.4,0-0.8-0.3-1.1c-2-2-3.9-2.9-6.8-3.1c-2.6-0.1-5.3,0.5-7.6,1.8
		c-4.5,2.5-6.9,7.8-6.2,12.9c1.5,11.1,16.2,15.4,23.3,6.5c3.5-4.4,3.7-11.2,0.6-15.8c-1.2-1.8-4.3,0-3,1.7
		c3.1,4.2,2.5,10.8-2.1,13.7s-11.2,1.8-14-3c-2.8-4.5-1.3-10.8,3.4-13.2c2.5-1.3,5.5-1.6,8.3-0.8C40.4,25.6,43.3,27.3,43.8,26z"/>
	<path d="M63.8,31.6c-0.9-7.3-4.7-13-9.9-17.9c-2.5-2.3-5.7,1.8-2.8,3.7c8.6,5.7,11.3,19.3,6,27.9c-2.5,4.1-8.1,7.1-12.9,7.3
		c-3,0.1-6.1-0.6-9-1.1c-3-0.5-5.9-1.3-8.8-2.2c-2.1-0.7-4.3-1.2-6.5-0.9c-3.1,0.4-4.9,2.4-7.6,3.6c-5.9,2.6-10.6-4.1-7.9-9.2
		c1.2-2.3,3.2-4,4.3-6.4s1.1-4.9,1-7.5c-0.1-2.5-0.4-5.7,1.6-7.6c2.1-2,5.2-1.2,7.7-1.3c5.5-0.1,8.1-5.7,12.6-7.9
		c5.5-2.8,11-0.8,16.3,1.1c0.7,0.2,1.3-0.7,0.9-1.2c-3-4.7-9.7-5.5-14.7-4.5c-2.8,0.5-5.3,1.8-7.4,3.6c-2.2,1.9-4.1,4.9-7.2,5.5
		c-1.2,0.2-2.3-0.1-3.5,0c-1.5,0.1-2.9,0.4-4.2,0.9c-2.5,1-4.2,3.1-4.9,5.7c-0.8,3.1-0.1,6.2-0.5,9.4c-0.6,3.5-3.5,5.6-5.1,8.6
		c-2.7,4.9-1,11.6,4.2,14.1c2.3,1.1,5.2,1.3,7.6,0.4c3.3-1.2,5.4-3.9,9.2-3.1c3.3,0.7,6.3,2.1,9.6,2.9c3.5,0.8,7.1,1.5,10.7,1.7
		c5.8,0.4,12.6-2.4,16.3-6.9C63.2,45.1,64.6,38.1,63.8,31.6z"/>
	<path d="M42.5,32.7c0.1-1.6-1.5-3.1-2.8-3.9c-1.5-0.8-3.1-0.9-4.7-0.3c-0.8,0.3-0.7,1.6,0.2,1.5c1.1-0.1,2.3,0.3,3.2,0.9
		c0.9,0.7,1.2,1.7,2,2.5C41.1,34.3,42.4,33.7,42.5,32.7z"/>
	<path d="M41.3,38.5c0.7,0,1.4-0.4,1.5-1.2c0.2-0.8-0.3-1.7-1.1-1.9c-0.9-0.2-1.7,0.3-1.9,1.1c-0.1,0.4,0,0.8,0.2,1.1
		C40.3,38.2,40.7,38.5,41.3,38.5z"/>
</g>
</svg>
