<?xml version="1.0" encoding="utf-8"?>
<!-- Generator: Adobe Illustrator 24.0.2, SVG Export Plug-In . SVG Version: 6.00 Build 0)  -->
<svg version="1.1" id="Layer_1" xmlns="http://www.w3.org/2000/svg" xmlns:xlink="http://www.w3.org/1999/xlink" x="0px" y="0px"
	 viewBox="0 0 64 64" style="enable-background:new 0 0 64 64;" xml:space="preserve">
<g>
	<path d="M0.7,57.2c2.8,0.4,5.6,0.6,8.4,0.6c0.6,1.1,1.4,2,2.1,3c0.6,0.9,1,2.1,2.1,2.6c1.1,0.5,3.1,0.1,4.3,0.1c5,0,10,0,15,0.1
		c4.5,0.1,9.1,0.1,13.6,0.3c2,0.1,3.7,0.1,5.2-1.4c1.4-1.4,2.4-3,3.5-4.6c2.4,0,4.6,0,7,0c1.4,0,1.4-2.1,0-2.2
		c-17.7-1-58.6-0.7-61.2,0.1C0.1,56-0.1,57,0.7,57.2z M19.2,57.8c9.8,0,19.7,0.1,29.4,0.1c0.9,0,1.8,0,2.7,0
		c-0.6,0.9-1.4,1.9-2.1,2.5c-1.1,0.9-2.8,0.5-4.1,0.5c-4.1-0.1-8.4-0.1-12.5-0.2c-4.5,0-9-0.1-13.5,0.1c-1.4,0.1-3.1,0.5-4.4,0.3
		c-0.9-0.1-1.1-0.9-1.7-1.6c-0.4-0.5-0.9-1-1.4-1.6C14.2,57.8,16.7,57.8,19.2,57.8z"/>
	<path d="M51.4,19.4C41.8,13,26.9,12.5,19.2,22c-1.8,2.1,1.4,5.3,3.1,3.1c5.6-6.9,15-7.4,22.9-4.3c4.3,1.6,9.1,4.5,11.7,8.5
		c2.1,3.3,4.3,7.1,3.9,11.1c-0.4,4.6-4.9,7.8-9.1,8.8c-4.9,1.1-10.1,0.8-15.1,0c-3.6-0.6-8.2-1.2-10.8-4.1c-1.9-2.1-2.6-5.1-2.6-7.9
		c-0.1-1.6,0.1-2.6,1.6-3.1c1-0.4,2.1-0.6,3.1-0.9c5-1.4,12.1-2.4,14.6,3.6c0.4,0.9,1.7,0.9,1.8-0.2c0.2-5.7-6.3-7.7-10.9-7.6
		c-2.8,0.1-5.6,0.6-8.2,1.4c-0.9,0.2-1.7,0.5-2.5,0.9h-0.1c-1-0.2-1.9-0.8-2.7-1.4c-1.1-0.7-2.7-1.6-3.6-2.6c-0.8-0.9-1-2.4-1.7-3.4
		c-0.6-1-1.6-1.9-2.6-2.4c-1.9-0.9-4.1-0.9-5.8,0.3c-1.1,0.7-1.9,1.9-1.9,3.1C3,25,1.9,25.6,1.3,26.9c-1.2,2.5,0.4,5.4,2.6,6.5
		c1.5,0.7,3.1,0.7,4.8,0.5c2.3-0.3,3.5-0.3,5.3,1.3c1.4,1.2,3.7,3.9,5.9,4.6c0.6,3.4,2.3,6.6,4.6,8.6c-2.1-0.1-4.1-0.4-6.1-1
		c-2.2-0.6-3.9-1.9-5.1-3.9c-1.1-1.9-1.4-4.2-2.5-6.1c-0.3-0.5-1.1-0.6-1.4,0c-1,2.1-0.3,5.2,0.6,7.4c1.1,2.6,3,4.7,5.7,5.9
		c4.7,2,11.2,2.6,16.2,1.4c0.1,0,0.1,0,0.1-0.1c2.6,0.6,5.4,0.9,7.9,1.2c5.9,0.6,12.4,0.5,17.4-2.9c4.4-3,6.9-7.6,6.1-13
		C62.5,29.9,57.5,23.4,51.4,19.4z M19.9,34.1c-0.1,0.6-0.2,1.1-0.3,1.7c-0.6-0.4-1.2-0.8-1.6-1.2c-1.5-1.4-2.9-3-4.9-3.8
		c-2.1-0.9-3.8,0-5.9-0.1c-1.1,0-3.4-0.5-3.2-2.1C4.2,26.9,7,27.9,8,28.2c2.1,0.6,2.9-2.6,0.9-3.2c-0.8-0.2-1.7-0.4-2.6-0.5
		c0.2-0.4,0.5-0.7,0.9-1c0.9-0.6,2.1-0.6,3.1-0.1c2.4,1.2,1.9,3.5,3,5.4c0.9,1.5,2.6,2.5,4,3.6C18,33,18.9,33.6,19.9,34.1
		C19.9,34,19.9,34.1,19.9,34.1z"/>
	<path d="M27.8,0.9c0.1-0.5-0.3-0.9-0.7-0.9c-2.4-0.3-3.9,2.9-4.1,4.9c-0.1,1.3,0.3,2.4,0.9,3.5c0.3,0.6,0.6,1.1,0.6,1.9
		c0,0.9-0.8,1.8-1.1,2.6c-0.4,1.2,1,1.9,1.9,1.5c2.2-1.1,2.6-4.1,1.7-6.2c-0.6-1.3-1.4-2.1-1.1-3.7C26.3,3,27.4,2.2,27.8,0.9z"/>
	<path d="M34.2,10.7c-1.7,1-0.1,3.6,1.6,2.6c1.6-1,2.6-3,2-4.9c-0.5-1.7-3.7-4.4-1.5-6.1c0.5-0.4-0.1-1.1-0.6-1
		c-1.6,0.5-2.9,1.5-2.6,3.4C33.2,6.4,36.5,9.4,34.2,10.7z"/>
	<path d="M43,11.1c-0.4,0.9,0.7,1.9,1.6,1.6c1.8-0.6,2.5-2.4,2.4-4.2C46.9,6.6,44,3.1,46,1.3c0.4-0.4,0.1-0.9-0.3-1.1
		c-2-0.6-3.1,1.4-3.2,3.1c0,1.2,0.4,2.4,0.8,3.4c0.3,0.7,0.8,1.5,0.6,2.4C43.8,9.9,43.2,10.5,43,11.1z"/>
</g>
</svg>
