<?xml version="1.0" encoding="utf-8"?>
<!-- Generator: Adobe Illustrator 24.0.2, SVG Export Plug-In . SVG Version: 6.00 Build 0)  -->
<svg version="1.1" id="Layer_1" xmlns="http://www.w3.org/2000/svg" xmlns:xlink="http://www.w3.org/1999/xlink" x="0px" y="0px"
	 viewBox="0 0 64 64" style="enable-background:new 0 0 64 64;" xml:space="preserve">
<g>
	<path d="M0.9,52c0.4,6.2,8.8,11.5,14.6,11.2c0.1,0,0.3-0.1,0.5-0.1c0.1,0,0.4-0.1,0.5-0.1c3.6-2.3,5.8-6.5,8.6-9.6
		c1.2,1.3,9.6,9,9.1,8.5c0.3,0.3,1,0.6,1.6,0.4c3.7-0.9,7.5-2.8,10.4-5.2c2.6-2.2,3.4-5.1,3.4-8.5c0-2.8,0-10.7-0.1-11.5
		c-0.1-2.8-0.7-4.6-0.7-4.7c-2.2-6.7-13.1-9-18.9-9.5c-8-0.7-18.3,0.3-25,5.3c-2.6,2-5.3,5.9-4.7,9.4C0,42.4,0.6,47.4,0.9,52z
		 M14.2,60.4c-3.1-0.6-6.1-2.1-8.3-4.4c-1.8-1.9-2-3.3-2.1-5.8c-0.1-2.6-0.1-5.3-0.1-8c2.8,2,6.9,2.8,10.3,3.1
		C13.9,45.8,14.2,57.9,14.2,60.4z M16.7,58.9c0-2,0.1-13.2-0.1-13.8V45l0,0c2.3-2.6,4.5-5.1,6.7-7.7c0,1.8,0.4,10.8,0.6,13.4
		C22,53.7,18.9,56,16.7,58.9z M26.5,50.7C26.4,48,26.2,39,26.1,37.2c2.5,2.6,7.9,8.1,8,8.3c-0.4,2,0.1,10.4,0.1,12.3
		C33.3,56.9,28.1,52,26.5,50.7z M47.1,47.6c0.1,2.6-0.3,5.3-2.5,7.1c-2.3,1.9-5.2,3-7.9,4.2c-0.1-2.4,0.1-11-0.1-13l0,0
		c2-0.2,4.7-1,6.5-2c1.3-0.7,2.6-1.8,3.7-3.1C46.9,43.1,47,45.4,47.1,47.6z M7.7,29.9c5.9-3.7,13.8-4.3,20.6-4
		c4.1,0.1,8.3,0.9,12,2.7c2.3,1.1,5.5,3.1,5.8,6c0.3,3.4-3.4,6.5-6.3,7.4c-0.8,0.3-3,0.8-3.4,0.9s-1.2-0.4-1.5-0.7
		c-3.1-3.2-6.2-6.4-9.3-9.6c-0.5-0.6-1.6-0.6-2.1,0c-3,3.4-6,6.9-9.1,10.4c-0.1,0.1-0.2,0.3-0.3,0.4c-3.8-0.6-8.9-1.6-10.9-5
		C3.1,38,3,37.2,2.9,37.1C2.8,34.2,5.6,31.2,7.7,29.9z"/>
	<path d="M44,23c0.1,0.2,0.8,0.5,0.9,0.6c6,4.5,16.1,3.3,18.9-4.4c0.1-0.1,0.1-0.2,0.1-0.4c0.1-0.4-0.1-0.7-0.2-0.9
		c-0.1-0.1-5.8-8.2-7.4-9.9c-1.1-1.1-2.7-1.8-4.1-2.5c-2.9-1.5-5.8-3.1-8.6-4.7c-0.4-0.2-0.7-0.2-1,0c-0.3,0.1-0.6,0.3-0.8,0.6
		c-1.1,1.9-2.2,3.7-3.3,5.6c-0.9,1.4-2,3-2.6,4.5c-0.5,1.5,0.5,2.5,1.5,3.6C39.7,17.7,41.8,20.4,44,23z M52.2,23.7
		c-2-0.1-3.9-0.9-5.7-1.8c1.8-2.4,5.5-7.7,5.6-7.9c3,1.6,6.3,2.8,9.2,4.6C60,22.1,55.7,24,52.2,23.7z M54.3,9.4
		c0.3,0.1,3.1,4.3,4.7,6.2c-2.2-1.5-4.3-3-6.6-4.3c-0.1-0.1-4-5-4.2-5.2C48.9,6.5,53,8.6,54.3,9.4z M43.5,4.1c1.8,2.4,6.6,8,6.6,8.3
		c0,0.1-3.9,5.8-5.3,7.6c-1.5-1.8-6.3-7.3-6.2-7.9C38.7,11.4,42.7,5.2,43.5,4.1z"/>
	<circle cx="41.7" cy="11.8" r="1.5"/>
	<path d="M28.7,43c-0.8,0-1.5,0.7-1.5,1.5s0.7,1.5,1.5,1.5c0.8,0,1.5-0.7,1.5-1.5S29.5,43,28.7,43z"/>
	<path d="M31.8,48.3c-0.8,0-1.5,0.7-1.5,1.5c0,0.8,0.7,1.5,1.5,1.5s1.5-0.7,1.5-1.5C33.2,48.9,32.6,48.3,31.8,48.3z"/>
	<circle cx="20.4" cy="46.8" r="1.5"/>
	<circle cx="46.2" cy="12.5" r="1.5"/>
</g>
</svg>
