<?xml version="1.0" encoding="utf-8"?>
<!-- Generator: Adobe Illustrator 24.0.2, SVG Export Plug-In . SVG Version: 6.00 Build 0)  -->
<svg version="1.1" id="Layer_1" xmlns="http://www.w3.org/2000/svg" xmlns:xlink="http://www.w3.org/1999/xlink" x="0px" y="0px"
	 viewBox="0 0 64 64" style="enable-background:new 0 0 64 64;" xml:space="preserve">
<title>aperitifs</title>
<path d="M64,30.4V30c0.1-0.8-0.4-1.6-1.3-1.8c-0.8-0.1-1.6,0.4-1.8,1.3c-4.1,9.7-15.3,14.2-25,10.1s-14.2-15.3-10.1-25
	c2.3-5.4,7-9.5,12.8-11c0.7-0.2,1.2-0.8,1.1-1.5c0-0.7-0.5-1.4-1.2-1.5C36.4,0.2,34.2,0,32,0C14.3,0,0,14.3,0,32s14.3,32,32,32
	s32-14.3,32-32l0,0C64,31.5,64,31,64,30.4z M12.2,18.3c2.5,0,4.6,2,4.6,4.6s-2,4.6-4.6,4.6s-4.6-2-4.6-4.6
	C7.6,20.3,9.7,18.3,12.2,18.3L12.2,18.3z M13.7,45.7c-3.4,0-6.1-2.7-6.1-6.1s2.7-6.1,6.1-6.1s6.1,2.7,6.1,6.1
	C19.8,43,17.1,45.7,13.7,45.7C13.7,45.7,13.7,45.7,13.7,45.7L13.7,45.7z M26.7,54.8c-2.1,0-3.8-1.7-3.8-3.8c0-2.1,1.7-3.8,3.8-3.8
	s3.8,1.7,3.8,3.8C30.5,53.1,28.8,54.8,26.7,54.8C26.7,54.9,26.7,54.9,26.7,54.8L26.7,54.8z"/>
</svg>
