<?xml version="1.0" encoding="utf-8"?>
<!-- Generator: Adobe Illustrator 24.0.2, SVG Export Plug-In . SVG Version: 6.00 Build 0)  -->
<svg version="1.1" id="Layer_1" xmlns="http://www.w3.org/2000/svg" xmlns:xlink="http://www.w3.org/1999/xlink" x="0px" y="0px"
	 viewBox="0 0 64 64" style="enable-background:new 0 0 64 64;" xml:space="preserve">
<g>
	<path d="M61.5,21.2c-0.7-0.5-1.5-0.7-2.4-0.9c-1.4-0.3-1.5-0.6-1.9-1.9c-0.4-1.4-0.8-3-2.2-3.8c-1.5-0.9-3.1-0.3-4.5,0.4
		c-1.3,0.6-1.9,0.9-2.7-0.4c-0.4-0.7-0.8-1.4-1.2-2.1c-1.7-2.3-5-2.6-7.7-1.6c-1.1-1.1-2.4-2-4-2.5c0.5-0.8,1.1-1.5,1.7-2.2
		c0.6-0.7,1.6-1.1,2.2-1.8c0.3-0.4,0.1-0.9-0.3-1c-2.3-0.7-5.3,1.1-6.8,2.7c-0.6,0.7-1.2,1.6-1.7,2.4c-3.1,0-6.3,1.9-7.8,4.7
		c-0.6,1.1-0.9,2.3-0.8,3.4c-3.2,2.1-6.1,5-9,7.5c-3.8,3.2-7.7,6.3-11.8,9.1c-0.8,0.6-1,1.4-0.6,2.4c3.4,7.3,5.7,15,5.7,23.2
		c0,0.9,0.8,1.9,1.8,1.8c8-0.9,44.5-5.7,48.4-6.8c0.7-0.2,1.1-0.9,1.2-1.6c0.6-7,2.7-14.2,4.7-21.1C64.3,28.1,65.1,23.6,61.5,21.2z
		 M26.4,14c0.8-1,1.8-1.7,2.9-2.1c-0.1,0.7-0.1,1.4-0.1,2.1c0.1,2.9,4.7,2.8,4.4,0c-0.1-0.6-0.1-1.3,0-1.9c3.6,0.5,3.8,4.2,3.4,5.5
		c-0.9,2.9-4.1,4.5-7,3.6C27.2,20.3,24,17,26.4,14z M54.5,50.7c-3.5,0.4-37.4,5.2-45,6.1c-0.1-2-0.3-4-0.6-6
		c1.9,0.1,43.4-5.2,47.1-6.1C55.5,46.7,55,48.7,54.5,50.7z M56.7,41L56.7,41c-9.6,1.3-46.6,6.3-48.5,6.8C7.3,43.6,5.8,39.6,4,35.7
		c3.2-0.1,39-2.4,47.2-2.9c2.1-0.1,2.1-3.4,0-3.3c-8.2,0.4-44.7,4.5-45.8,4.7c3.1-2.3,14.7-11.9,17-14.8c1.4,2.8,4.3,5,7.3,5.7
		c4,0.9,8.1-0.9,10.2-4.2c0.1,0.1,13.4,5.8,19.4,9.4c0,0,0,0,0,0.1C58.3,33.8,57.5,37.4,56.7,41z M60.6,27.6
		c-6.1-3.5-19.3-9.9-19.5-9.9c0.3-1.6,0.1-3.1-0.5-4.4c0.8-0.1,1.6-0.1,2.4,0.1c1.7,0.4,2,2.2,2.9,3.4c1.5,2.2,3.6,2.4,5.9,1.2
		c0.7-0.4,1.5-1.1,2.2-0.3c0.4,0.4,0.4,1.3,0.5,1.8c0.3,0.9,0.6,1.9,1.3,2.7c1.1,1.1,2.4,0.7,3.8,1.4C61.1,24.3,61.2,26.1,60.6,27.6
		z"/>
</g>
</svg>
