<?xml version="1.0" encoding="utf-8"?>
<!-- Generator: Adobe Illustrator 24.0.2, SVG Export Plug-In . SVG Version: 6.00 Build 0)  -->
<svg version="1.1" id="Layer_1" xmlns="http://www.w3.org/2000/svg" xmlns:xlink="http://www.w3.org/1999/xlink" x="0px" y="0px"
	 viewBox="0 0 64 64" style="enable-background:new 0 0 64 64;" xml:space="preserve">
<g transform="translate(131.02975,-196.70833)">
	<path d="M-99,260.7 M-99,259.4"/>
</g>
<g>
	<path d="M7,63c4.1,0.6,8.3,1.1,12.4,1c3.1-0.1,7.4,0,10.3-1.4c2.6-1.3,2.3-5.1,2.5-7.6c0.4-4,0.4-8,0.5-12
		c0.1-3.9,0.1-7.9,0.1-11.8c-0.1-3.1-0.7-5.7-2.9-8.1c-1.1-1.3-2.4-2.3-3.3-3.8c-0.9-1.6-1.1-3.4-1.1-5.1c-0.1-4.1,0.6-8.1,0.1-12.3
		c-0.1-0.6-0.4-1.4-1.1-1.4c-3.1-0.5-6.2-0.6-9.4-0.4c-0.5,0-0.9,0.2-1.1,0.5c-0.5,0.2-0.9,0.6-0.9,1.3c-0.1,3-0.3,6-0.4,9.1
		c-0.1,1.4-0.1,2.9-0.1,4.3s0.2,3-0.9,4.1c-0.7,0.8-1.8,1.1-2.6,1.8c-0.8,0.6-1.5,1.5-2.1,2.4c-1.4,2.1-1.9,4.6-2.3,7
		c-1.3,10.3-0.7,21,1,31.3C5.9,62.3,6.5,62.9,7,63z M19.5,60.7c-1.6,0-3.2-0.1-4.9-0.2c1.2-1.4,2.6-3.9,4.7-3.2
		c1.6,0.5,2.6,2.1,3.5,3.4C21.7,60.7,20.6,60.7,19.5,60.7z M29.2,57.8c-0.1,1.2-0.1,1.8-1.3,2.3c-0.6,0.2-1.4,0.3-2.1,0.4
		c-1.1-0.7-2.4-3-3-3.7c-1-1.1-2.3-2.2-3.9-2.3c-1.4-0.1-3,0.7-4.1,1.6c-1.1,1-2.2,3.4-3.7,4.1C10.5,60.1,9.7,60,9,59.9
		C8.5,56.5,8.2,53,8,49.5c3.9,0,7.8-0.4,11.7-0.4c3.4,0.1,6.8,0.4,10.1,0.7C29.6,52.5,29.5,55.2,29.2,57.8z M16.2,3.5
		c2.2-0.2,4.4-0.3,6.6-0.1c0.1,1.1,0,2.3-0.1,3.4c-1.1,0-2.2,0.1-3.1,0.1c-1.1,0-2.3,0.1-3.4,0.1C16.2,5.7,16.2,4.6,16.2,3.5z
		 M8.6,29.1c0.6-2.8,1.7-4.9,4.1-6.4c1.5-1,2.9-2.3,3.1-4.1c0.4-2.5,0.1-5.3,0.2-7.9c0-0.4,0-0.9,0-1.4c1.1,0.1,2.3,0.1,3.4,0.1
		c0.9,0,1.9,0.1,2.9,0.1c-0.2,3.1-0.4,6.1,0.5,8.9c-0.8-0.1-1.6-0.2-2.5-0.1c-2.4,0.1-2.4,3.7,0,3.6c1.1,0,2.4-0.1,3.5,0.4
		c0.8,0.3,1.6,0.7,2.4,1.2c1,1.1,2.1,2.1,2.6,3.4c1.1,2.3,0.9,5.4,0.9,8l0,0c-1.4-0.1-3-0.2-4.4-0.1c0-0.1-0.1-0.3-0.1-0.6
		c0.1-0.5-0.1-1.4-0.1-1.9c-0.6-2.4-4.2-1.8-6.1-1.8c-1.9-0.1-4.6-0.1-5.4,2.1c-0.5,1.4,0.3,1.9-1.6,2.3c-1.4,0.4-2.9,0.4-4.3,0.6
		C7.9,33.5,8.1,31.3,8.6,29.1z M12.5,38c1.1-0.1,2-0.3,2.8-1.1c0.5-0.6,0.8-1.3,0.9-2.1c0.1-0.2,0-0.8,0.1-1
		c0.3-0.4,2.2-0.1,2.7-0.1c0.8,0,1.5,0.1,2.2,0.1c1.4,0.1,0.8-0.3,1.2,0.6c0.4,0.9-0.1,2.1,0.6,2.9c0.6,0.6,1.4,0.6,2.2,0.6
		c1.5,0,3.1,0.1,4.6-0.1c0.1,3.1,0.1,6.2-0.1,9.4c-7.1-1-15-1.8-22,0.2c0-0.6-0.1-1.2-0.1-1.8c0-2.4-0.1-4.8-0.1-7.2
		C9.3,38.3,10.9,38.2,12.5,38z"/>
	<path d="M46.2,48.8c0.1,2.5,0.4,5.1-0.1,7.6c-0.8,3.6-3.4,4.3-6.6,4.8c-1.1,0.1-0.9,2,0.3,2c5.5,0,11,0.1,16.4,0.1
		c1.1,0,1.5-1.9,0.3-2.1c-3.1-0.5-5.4-1.5-6.2-4.8c-0.6-2.4-0.3-5,0.1-7.5c5-0.6,8.6-4.6,9.4-9.5c0.8-4.1-1-8.9-2.3-12.8
		c-0.2-0.6-0.7-1.1-1.4-1.1c-5.3,0-10.6-0.1-15.9-0.1c-0.6,0-1.1,0.3-1.3,0.7c-0.1,0.1-0.2,0.1-0.3,0.2c-1.6,2.1-1.9,4.7-2.2,7.2
		c-0.4,2.8-0.6,5.8,0.5,8.4C38.5,46,42.2,48.2,46.2,48.8z M50.4,61c-1.6,0-3.2,0-4.9,0c0.8-0.6,1.4-1.5,1.9-2.6
		c0.2-0.5,0.4-1,0.4-1.5c0.1,0.4,0.3,0.8,0.4,1.2C48.8,59.3,49.6,60.3,50.4,61z M50.7,45.6C46,46.8,40.3,44.9,39,39.8
		c-0.1-0.5-0.2-1-0.3-1.5c1.7-1.1,3.3-2.1,5.4-2.2c1.8,0,3.4,0.7,5.1,1.3c2.9,1.1,5.1,0.8,7.6-0.4C56.7,40.8,54.4,44.7,50.7,45.6z
		 M39.9,28.3c0.1,0,0.1,0,0.2,0c4.9,0,9.9,0,14.8-0.1c0.6,2,1.1,4,1.6,6c-1.7,1-3.3,1.7-5.4,1.1c-1.6-0.4-3.1-1.2-4.7-1.6
		c-2.6-0.6-5.4,0-7.6,1.6C38.9,33,39.5,30.7,39.9,28.3z"/>
</g>
</svg>
