<?xml version="1.0" encoding="utf-8"?>
<!-- Generator: Adobe Illustrator 24.0.2, SVG Export Plug-In . SVG Version: 6.00 Build 0)  -->
<svg version="1.1" id="Layer_1" xmlns="http://www.w3.org/2000/svg" xmlns:xlink="http://www.w3.org/1999/xlink" x="0px" y="0px"
	 viewBox="0 0 64 64" style="enable-background:new 0 0 64 64;" xml:space="preserve">
<g transform="translate(131.02975,-196.70833)">
	<path d="M-99,260.7 M-99,259.4"/>
</g>
<g>
	<path d="M6.6,30.6C8,24.8,10.1,19,14.4,14.6c4.5-4.5,10.6-6.8,16.9-6.9C44.4,7.6,54.9,17.4,56,30.3c0.2,2.3,3.8,2.3,3.6,0
		c-1-10.8-7.6-20.7-18.1-24.4c-1.8-0.6-3.7-1.1-5.6-1.4c0.4-0.9,0.4-1.8,0.4-2.7c-0.1-0.8-0.6-1.4-1.4-1.4c-1.4,0-2.8,0-4.2,0
		c-1.1,0-2.4-0.1-3.2,0.9c-0.6,0.9-0.4,2.2,0.3,3.2c-6.5,0.9-12.7,4-17.1,9.1c-3.9,4.7-6.5,10.6-6,16.7C4.6,31.4,6.3,31.7,6.6,30.6z
		 M33.3,3.2c-0.1,0.3-0.6,0.9-0.6,1.1c-0.7,0-1.4,0-2.2,0c0-0.1-0.2-0.7-0.4-1C30.7,3.2,32.8,3.2,33.3,3.2z"/>
	<path d="M0.5,36c0.7,0.1,1.5,0.2,2.2,0.3c0.1,0.1,0.1,0.2,0.1,0.3c1.5,1.9,2.9,4.3,5.5,4.4c1.2,0,5.8,0,6.8,0
		c3.4,8,10,14.8,17.4,19.2c-0.8,0.8-1.6,1.6-2.2,2.4c-0.4,0.5,0.2,1.3,0.9,1.1c1.9-0.6,3.6-2.1,5.2-3.2c1.8-1.3,3.7-2.7,5.5-3.9
		c0.6-0.4,1.9-1.7,2.7-1.7c0.6,0,1.4,0.9,1.9,1.4c1.4,1.4,2.7,2.9,4.3,4.1c1.7,1.1,3.7-1.4,2.2-2.9c-2.3-2.2-5.6-6.5-9-5.7
		c0-0.9,0.1-1.8,0.5-2.7c0.6-1.1,1.6-2.1,2.4-3.1c1.2-1.4,2.4-2.9,2.9-4.6c0.4,0,0.9,0,1.3,0c1.8,0,3.9,0.3,5.6-0.4
		c1.9-0.8,3.4-2.8,4.6-4.4c0.1-0.1,0.1-0.1,0.1-0.2c0.5,0,0.9,0,1.4,0c1.4,0,1.4-2.2,0-2.2c-18.1-1-36.4-0.9-54.5-0.4
		c-2.7,0.1-5.3,0.1-7.9,0.9C-0.1,34.7-0.2,35.8,0.5,36z M41.1,53.2c-1.7,1.1-5.3,4.2-5.4,4.2c-7.6-3.9-12.5-10.6-18.4-16.4
		c0.9,0,1.7,0,2.5,0c4,3.2,8.8,6.6,14,6.6c4.8,0,8-2.9,11-6.4c0.8,0,1.5,0,2.3,0C44.2,44.8,39.7,48,41.1,53.2z M24.7,40.9L24.7,40.9
		c5.7,0,11.3,0.1,16.9,0.1c-0.1,0.1-0.3,0.4-0.5,0.6c-1.9,2.1-3.9,3.5-6.8,3.5s-5-1.1-7.4-2.7C26,42.1,25.3,41.5,24.7,40.9z
		 M58.1,36.3c-1,1.1-2.2,2.2-3.9,2.2c-1.1,0.1-45.7,0.2-46.4,0c-0.9-0.3-1.7-1.1-2.4-1.9C10,36.7,55.3,36.3,58.1,36.3z"/>
	<path d="M50.6,23.3c-1.1-4.9-6.2-9.3-10.8-10.7c-1.2-0.4-2,1.4-0.9,2.1c2,1.1,3.9,2.3,5.5,4c1.7,1.7,2.4,3.7,3.6,5.7
		C48.9,25.8,50.9,24.8,50.6,23.3z"/>
	<path d="M50.9,29.7c1,0,1.8-0.8,1.8-1.8s-0.8-1.8-1.8-1.8s-1.8,0.8-1.8,1.8S49.9,29.7,50.9,29.7z"/>
</g>
</svg>
