<?xml version="1.0" encoding="utf-8"?>
<!-- Generator: Adobe Illustrator 24.0.2, SVG Export Plug-In . SVG Version: 6.00 Build 0)  -->
<svg version="1.1" id="Layer_1" xmlns="http://www.w3.org/2000/svg" xmlns:xlink="http://www.w3.org/1999/xlink" x="0px" y="0px"
	 viewBox="0 0 61.9 64" style="enable-background:new 0 0 61.9 64;" xml:space="preserve">
<title>aperitifs</title>
<g>
	<path d="M31,49.3c3.1,0,5.7-2.5,5.7-5.7s-2.5-5.7-5.7-5.7s-5.7,2.5-5.7,5.7S27.8,49.3,31,49.3z M28.2,43.6c0-1.5,1.2-2.8,2.8-2.8
		s2.8,1.2,2.8,2.8s-1.2,2.8-2.8,2.8S28.2,45.1,28.2,43.6z"/>
	<path d="M45.4,52.4c2.2-5.4,2.7-11.9-0.5-16.9c0,0-0.8-1.3-2-3L41,29.7c-2.9-4.3-4.4-9.4-4.4-14.5V8.1c0.6-0.2,1.1-0.7,1.1-1.4V4.6
		c0-2.5-2.1-4.6-4.6-4.6h-4.2c-2.5,0-4.6,2.1-4.6,4.6v2.1c0,0.7,0.4,1.2,1.1,1.4v7.1c0,5.2-1.5,10.2-4.4,14.5c0,0.1-3.9,5.8-3.9,5.8
		c-3.2,4.9-2.7,11.4-0.5,16.8c0,0.1,0.1,0.2,0.1,0.2c0.6,1.4,1.2,2.7,2,3.9c0.2,0.4,0.5,0.8,0.7,1.2l0.1,0.1
		c1.9,3.2,3.7,6.1,6.3,6.1h10.5c2.6,0,4.4-3,6.3-6.1c0.3-0.4,0.5-0.9,0.8-1.3c0.7-1.2,1.4-2.5,2-3.9C45.3,52.6,45.4,52.5,45.4,52.4z
		 M28.2,8.2h5.5v7c0,5.8,1.7,11.4,4.9,16.2c1.5,2.3,3,4.5,3.6,5.4c-2.3-0.3-4.7-1-7.3-2.2c-2.3-1.1-5.6-1.1-7.8,0
		c-2.6,1.2-5,2-7.3,2.2c0.6-0.9,2.1-3.1,3.6-5.4c3.2-4.8,4.9-10.4,4.9-16.2V8.2z M18.2,39.8c3.2-0.1,6.6-0.9,10.1-2.6
		c1.5-0.7,3.9-0.7,5.3,0c3.5,1.7,6.8,2.5,10,2.6c1.1,3.4,0.6,7.3-0.6,10.8H18.9C17.6,47,17.2,43.1,18.2,39.8z M41.7,53.5
		c-0.3,0.5-0.6,1-0.9,1.5c-0.2,0.4-0.5,0.8-0.7,1.2L40,56.4c-1.1,1.9-2.8,4.7-3.8,4.7H25.7c-1,0-2.7-2.9-3.8-4.7l-0.1-0.2
		c-0.2-0.4-0.5-0.8-0.7-1.1c-0.3-0.5-0.6-1-0.9-1.5H41.7z M34.8,5.3h-7.6V4.6c0-0.9,0.8-1.7,1.7-1.7h4.2c0.9,0,1.7,0.8,1.7,1.7V5.3z
		"/>
</g>
</svg>
