<?xml version="1.0" encoding="utf-8"?>
<!-- Generator: Adobe Illustrator 24.0.2, SVG Export Plug-In . SVG Version: 6.00 Build 0)  -->
<svg version="1.1" id="Layer_1" xmlns="http://www.w3.org/2000/svg" xmlns:xlink="http://www.w3.org/1999/xlink" x="0px" y="0px"
	 viewBox="0 0 64 64" style="enable-background:new 0 0 64 64;" xml:space="preserve">
<g>
	<path d="M8,19.4c-1.2,2.1,0.7,4.7,2,6.5c1.2,1.7,2.2,3.1,2.7,5.1c0.5,1.8,0.9,3.6,1.6,5.3c1.4,3.4,4.3,5.9,6.9,8.4
		c1.5,1.4,3,4.3,5.1,4.3c3.9,0.1,7.9,0.1,11.8,0c1.2,0,2.3,0.1,3.2-0.7c0.9-0.8,7.2-7.2,7.7-7.7c1.8-1.4,6.9-3.3,9.9-4.6
		c2.5-1.1,4.6-3.2,4.6-6.1c0-2.4-1.5-4.6-3.8-5.6c-1.1-0.4-2.5-0.7-3.8-0.4c0.6-1.2,1.2-2.2,2.2-3.3c0.9-0.9,0.1-2.2-0.9-2.3
		c-15.5-2-30.9-3-46.5-0.9C9,17.8,8.2,19.2,8,19.4z M59.8,27.7c1.7,2,0.2,4.1-1.8,5.1c-1.7,0.7-3.5,1.1-5.2,1.8
		c0.3-0.7,0.5-1.3,0.7-2c0.7-2,1-4,1.7-5.9C56.8,26.6,58.5,26.2,59.8,27.7z M33.9,19.9c6.9,0.1,14,0.2,21,0.9
		c-2.8,4.3-3,9.9-5.4,14.5c-2.3,4.5-6.5,6.9-9.8,10.4c-4.3,0-8.5,0.2-12.8,0.3c-3.3-4-8.3-7.1-10.1-12.1c-0.7-2.2-1-4.7-2.2-6.8
		c-0.8-1.4-4-4.2-4.1-6.3C18.1,19.9,26,19.9,33.9,19.9z"/>
	<path d="M26.5,43c1.4,1.1,2.1,1.3,3.8,1.3c1.7,0.1,3.5,0.1,5.1,0.1c1.4,0,2.2,0.1,3.4-0.7c2.4-1.7,4.5-3.9,6.3-6.2
		c1.3-1.7,2.4-3.4,3.3-5.3c0.4-0.7,1.1-2,1-2.9c0.1-0.9-0.7-2-1.7-1.7c-2.2,0.7-4.6,1.2-6.9,1.4c-2.6,0.2-5.1-0.5-7.5-1.3
		c-2.6-0.9-5.1-1.6-8-1.2c-2.2,0.3-4.9,1-6.6,2.6c-0.3,0.3-0.3,0.6-0.3,0.8C18.6,34.8,22.8,40.1,26.5,43z M27.8,29.1
		c3,0.2,5.7,1.7,8.5,2.6c3,1,6.7,0.6,9.8-0.5c-0.7,1.4-1.4,2.6-2.2,3.8c-1.5,2.1-5.5,6.6-6.8,6.7c-0.5,0.1-1.2-0.1-1.7-0.1
		c-1.4-0.1-3-0.1-4.4-0.1c-0.5,0-2-0.1-2.6-0.5c-2.2-1.5-4-3.5-5.4-5.7c-0.9-1.5-1.5-3.3-2.4-4.8C23,29.8,25.1,28.9,27.8,29.1z"/>
	<path d="M24.4,9.5c-0.1,1.5,1.1,2.7,2.3,3.2c1.1,0.4,1.8-1.3,0.8-1.8c-2.2-1.1,0.1-2.5,0.6-4c0.4-1.3-0.3-2.2-1.3-3
		c-0.7-0.5-1.7,0.7-1,1.3c1,0.9,0.1,1.5-0.4,2.3C25,8.2,24.5,8.8,24.4,9.5z"/>
	<path d="M30.3,8.4c-0.1,1.5,1.1,2.7,2.3,3.2c1.1,0.4,1.8-1.3,0.8-1.8c-2.2-1.1,0.1-2.5,0.6-4c0.4-1.3-0.3-2.2-1.3-3
		c-0.7-0.5-1.7,0.7-1,1.3c1,0.9,0.1,1.5-0.4,2.3C30.8,6.9,30.4,7.6,30.3,8.4z"/>
	<path d="M36.2,9.5c-0.1,1.5,1.1,2.7,2.3,3.2c1.1,0.4,1.8-1.3,0.8-1.8c-2.2-1.1,0.1-2.5,0.6-4c0.4-1.3-0.3-2.2-1.3-3
		c-0.7-0.5-1.7,0.7-1,1.3c1,0.9,0.1,1.5-0.4,2.3C36.7,8.2,36.2,8.8,36.2,9.5z"/>
	<path d="M62.6,52.5c-8.7-0.6-17.5-0.7-26.2-0.8c-9.3-0.1-18.5-0.3-27.8,0c-2.7,0.1-5.4,0.1-8,1c-0.8,0.3-0.9,1.6,0,1.8
		c2.8,0.7,5.8,0.9,8.8,0.9c0.6,0.9,2.8,4.8,4,5.3c1.2,0.5,28.7,0.4,33.3,0.5c2,0.1,3.8,0.1,5.3-1.4c1.2-1.3,2.3-2.8,3.3-4.3
		c2.5,0,4.8,0,7.3-0.1C64.5,55.4,64.4,52.6,62.6,52.5z M49.4,58.2c-1.4,1.5-33.1,0.3-34.4,0.1c-0.9-0.1-2.3-2.4-2.7-2.8
		c2.5,0,38.7,0,39.6,0C51.3,56.2,50,57.5,49.4,58.2z"/>
	<path d="M2.8,46.5c1.5,1.5,3.9,2.2,6,2.6c3,0.7,5.6-0.1,8.6-0.6c1.6-0.2,1.3-2.5,0-3c-3.8-5.1-8.2-10.1-12.7-14.5
		c-0.6-0.6-1.4-0.4-1.9,0.2C-0.2,35.6-1.2,42.6,2.8,46.5z M2.7,39.1c1.8,0.1,3.6,0.2,5.4,0.4c-1.7,0.9-3.3,2-4.8,3.2
		C2.7,41.6,2.6,40.3,2.7,39.1z M4.1,44.2c1.7-0.9,3.5-2,5.1-3.3c-0.1,0.7-0.9,4.4-0.9,5.5c-1.1-0.2-2.1-0.7-3-1.3
		C4.8,44.8,4.5,44.5,4.1,44.2z M15,46c-1.3,0.3-2.6,0.5-3.9,0.6c0.2-1,0.4-3.9,0.4-4.3C12.7,43.7,13.8,44.9,15,46z M4.1,34
		c1.2,1.2,2.4,2.5,3.5,3.8c-1.5-0.5-3-0.7-4.6-0.8C3.3,36,3.7,34.9,4.1,34z"/>
</g>
</svg>
