<?xml version="1.0" encoding="utf-8"?>
<!-- Generator: Adobe Illustrator 24.0.2, SVG Export Plug-In . SVG Version: 6.00 Build 0)  -->
<svg version="1.1" id="Layer_1" xmlns="http://www.w3.org/2000/svg" xmlns:xlink="http://www.w3.org/1999/xlink" x="0px" y="0px"
	 viewBox="0 0 64 64" style="enable-background:new 0 0 64 64;" xml:space="preserve">
<style type="text/css">
	.st0{fill:none;}
</style>
<g>
	<path d="M61.7,31.9c-17.9,0-35.6-0.2-53.5-0.3c-2.1,0-4.1,0.1-6.2,0.1c-0.1,0-0.1,0-0.1,0c-1-0.1-2,0.5-1.9,1.9
		c0.5,6.1,2.6,11.7,6.7,16.4c1.9,2.1,4,4,6.3,5.6c1.1,0.8,2.4,1.5,3.5,2.3c1.5,1.2,0.9,2.9,1.4,4.7c0.2,0.8,1,1.4,1.8,1.4
		c3.3,0,6.5,0,9.8-0.1c2.6,0,5.3,0,8,0c1.9,0,5.2,0.6,6.8-0.6c0.9-0.7,1.1-1.7,1.1-2.8c0-0.7-0.4-1.5-0.1-2.3c0.3-0.9,1.2-1.4,2-1.8
		c2.7-1.4,5.1-2.7,7.4-4.7c2.4-2.1,4.8-4.6,6.2-7.5c1.5-3.1,2.2-6.5,3.2-9.8C64.1,33.2,63,31.8,61.7,31.9z M56.8,42.5
		c-1.4,2.8-3.3,5.6-5.4,7.8c-2.1,2.1-4.7,3.1-7,4.8c-0.4,0.3-0.7,0.6-1.1,0.9c-0.9-0.1-4.8,0.1-5.6,0.6c-0.5,0.3-0.4,0.9,0,1.2
		c0.8,0.5,4.1,0.7,4.6,0.7c0,0.7,0,1.5-0.4,1.9c-0.9,1-18.5-0.2-20.9-0.2c0-0.7,0-1.5-0.1-2.2c0.6,0.1,4.3,0.7,5.1,0.1
		c0.7-0.5,1-1.5,0.3-2.1c-0.8-0.7-5.8-0.6-7-0.6c-0.3-0.2-0.6-0.4-0.9-0.6c-2.3-1.6-4.8-3.2-7-5.2c-4.3-4.1-7-9.2-7.8-15
		c5.1,0.5,10.2,0.5,15.2,0.6c10.2,0.2,20.4,0.6,30.5,0.6c3.1,0,6.2,0.1,9.3,0.1C58.4,38.2,57.8,40.5,56.8,42.5z"/>
	<g>
		<path class="st0" d="M25,33.9l-2.4-2.7L22,30.6l-2-2.2l-6.4-7.1c0,0-0.1,0.1-0.1,0.1L4.8,34.2h20.6c0,0-0.1-0.1-0.1-0.1L25,33.9z
			 M10.5,32c-0.5,0.2-1-0.1-1.2-0.6c-0.2-0.5,0.1-1,0.6-1.2c0.5-0.2,1,0.1,1.2,0.6C11.2,31.3,11,31.8,10.5,32z M13.8,27.2
			c-0.5,0.2-1-0.1-1.2-0.6c-0.2-0.5,0.1-1,0.6-1.2c0.5-0.2,1,0.1,1.2,0.6C14.6,26.5,14.3,27,13.8,27.2z M14.9,30.6
			c-0.3,0.1-0.5-0.1-0.6-0.3c-0.1-0.3,0.1-0.5,0.3-0.6c0.3-0.1,0.5,0.1,0.6,0.3C15.3,30.2,15.2,30.5,14.9,30.6z M19.2,33.6
			c-0.8,0.3-1.7-0.2-1.9-1c-0.3-0.8,0.2-1.7,1-1.9c0.8-0.3,1.7,0.2,1.9,1C20.4,32.5,20,33.3,19.2,33.6z"/>
		<path class="st0" d="M53.5,22.5l-9.3,4.6l-2.7,1.3L38,30.2c-0.2,0.1-0.4,0.2-0.6,0.3l6.6,1.7l3.8,1l3.6,1h8.1l-5.8-11.7
			C53.7,22.5,53.6,22.5,53.5,22.5z M46.4,29.5c-0.1,0.5-0.6,0.8-1.1,0.7c-0.5-0.1-0.8-0.6-0.7-1.1c0.1-0.5,0.6-0.8,1.1-0.7
			C46.2,28.5,46.5,29,46.4,29.5z M50.4,30.8c-0.1,0.3-0.3,0.4-0.6,0.4c-0.3-0.1-0.4-0.3-0.4-0.6c0.1-0.3,0.3-0.4,0.6-0.4
			C50.3,30.3,50.5,30.6,50.4,30.8z M51.6,27c-0.1,0.5-0.6,0.8-1.1,0.7c-0.5-0.1-0.8-0.6-0.7-1.1c0.1-0.5,0.6-0.8,1.1-0.7
			C51.4,26,51.7,26.5,51.6,27z M54.4,29.2c0.8,0.2,1.3,1,1.2,1.8c-0.2,0.8-1,1.3-1.8,1.2c-0.8-0.2-1.3-1-1.2-1.8
			C52.8,29.5,53.6,29,54.4,29.2z"/>
		<path class="st0" d="M27.2,31.8l7.8,1.1c-1.2-0.6-1.5-1.5-1.5-2.1c0-1.7,2-2.7,3.2-3.3l3.2-1.6l-3.2-4.9c0,0-0.1,0-0.2,0.1
			l-11.9,7.8L27.2,31.8C27.1,31.8,27.2,31.8,27.2,31.8z M34.4,25c0.5,0,0.9,0.5,0.8,1c0,0.5-0.5,0.9-1,0.8c-0.5,0-0.9-0.5-0.8-1
			C33.4,25.3,33.9,25,34.4,25z M32.6,30.6c0.3,0,0.5,0.3,0.5,0.5c0,0.3-0.3,0.5-0.5,0.5c-0.3,0-0.5-0.3-0.5-0.5
			C32.1,30.7,32.3,30.5,32.6,30.6z M29.5,28.1c0.5,0,0.9,0.5,0.8,1c0,0.5-0.5,0.9-1,0.8c-0.5,0-0.9-0.5-0.8-1
			C28.5,28.4,28.9,28,29.5,28.1z"/>
		<path d="M50,30.2c-0.3-0.1-0.5,0.1-0.6,0.4c-0.1,0.3,0.1,0.5,0.4,0.6c0.3,0.1,0.5-0.1,0.6-0.4C50.5,30.6,50.3,30.3,50,30.2z"/>
		<path d="M50.9,25.9c-0.5-0.1-1,0.2-1.1,0.7c-0.1,0.5,0.2,1,0.7,1.1c0.5,0.1,1-0.2,1.1-0.7C51.7,26.5,51.4,26,50.9,25.9z"/>
		<path d="M45.7,28.4c-0.5-0.1-1,0.2-1.1,0.7c-0.1,0.5,0.2,1,0.7,1.1c0.5,0.1,1-0.2,1.1-0.7C46.5,29,46.2,28.5,45.7,28.4z"/>
		<path d="M52.6,30.3c-0.2,0.8,0.4,1.6,1.2,1.8c0.8,0.2,1.6-0.4,1.8-1.2c0.2-0.8-0.4-1.6-1.2-1.8S52.8,29.5,52.6,30.3z"/>
		<path d="M32.5,31.6c0.3,0,0.5-0.2,0.5-0.5c0-0.3-0.2-0.5-0.5-0.5c-0.3,0-0.5,0.2-0.5,0.5C32,31.3,32.2,31.5,32.5,31.6z"/>
		<path d="M34.2,26.9c0.5,0,1-0.3,1-0.8c0-0.5-0.3-1-0.8-1c-0.5,0-1,0.3-1,0.8C33.3,26.4,33.7,26.8,34.2,26.9z"/>
		<path d="M29.3,30c0.5,0,1-0.3,1-0.8c0-0.5-0.3-1-0.8-1c-0.5,0-1,0.3-1,0.8C28.4,29.5,28.8,29.9,29.3,30z"/>
		<path d="M47.8,34.2h3.6l-3.6-1C47.8,33.5,47.9,33.9,47.8,34.2z"/>
		<path d="M53.5,22.5c0.1-0.1,0.2,0,0.2-0.1l5.8,11.7h3.3l-6.5-13.1c-0.7-1.5-2.6-2-4.2-1.3l-9.6,4.8l1.6,2.5L53.5,22.5z"/>
		<path d="M44.8,33.5l-0.8-1.3l-6.6-1.7c0.2-0.1,0.4-0.2,0.6-0.3l3.5-1.7l-1.6-2.5l-3.2,1.6c-1.2,0.6-3.2,1.6-3.2,3.3
			c0,0.6,0.3,1.5,1.5,2.1l9.3,1.3h0.6C44.9,34,44.8,33.7,44.8,33.5z"/>
		<path d="M36.5,21.2c0.1-0.1,0.2-0.1,0.2-0.1l3.2,4.9l2.7-1.3l-3.4-5.2c-0.5-0.7-1.2-1.2-2.1-1.3c-0.8-0.1-1.6,0.1-2.3,0.5l-12.3,8
			l2,2.2L36.5,21.2z"/>
		<path d="M35,32.9l-7.8-1.1c0.6,0.5,1.2,1.4,1.4,2.4h11.2L35.2,33C35.1,33,35.1,32.9,35,32.9z"/>
		<path d="M35.2,33l4.5,1.2h4.6L35,32.9C35.1,32.9,35.1,33,35.2,33z"/>
		<path d="M47.8,33.2l-3.8-1l0.8,1.3c0.1,0.1,0.1,0.5,0.1,0.7h3C47.9,33.9,47.8,33.5,47.8,33.2z"/>
		<polygon points="41.5,28.5 44.2,27.1 42.5,24.6 39.8,25.9 		"/>
		<path d="M27.2,31.8C27.2,31.8,27.1,31.8,27.2,31.8l-2.6-2.9L22,30.6l0.5,0.6L27.2,31.8z"/>
		<path d="M13.4,21.3c0-0.1,0.1-0.1,0.1-0.1l6.4,7.1c0.1-0.1,0.2-0.2,0.3-0.2l0.1-0.1l2.1-1.3l-7-7.8l-0.3-0.2
			c-0.7-0.5-1.6-0.6-2.4-0.4c-0.8,0.2-1.4,0.7-1.9,1.4L1.3,33.9L1.3,34c0,0.1-0.1,0.1-0.1,0.2h3.6L13.4,21.3z"/>
		<path d="M20.3,28.1c-0.1,0.1-0.2,0.1-0.3,0.2l2,2.2l2.5-1.7l-2-2.2L20.5,28L20.3,28.1z"/>
		<path d="M27.2,31.8l-4.6-0.6l2.4,2.7l0.2,0.2c0,0,0.1,0.1,0.1,0.1h3.2C28.3,33.2,27.7,32.3,27.2,31.8z"/>
		<path d="M14.6,29.6c-0.3,0.1-0.4,0.4-0.3,0.6c0.1,0.3,0.4,0.4,0.6,0.3c0.3-0.1,0.4-0.4,0.3-0.6C15.1,29.7,14.9,29.6,14.6,29.6z"/>
		<path d="M14.4,26c-0.2-0.5-0.7-0.8-1.2-0.6c-0.5,0.2-0.8,0.7-0.6,1.2c0.2,0.5,0.7,0.8,1.2,0.6C14.3,27,14.6,26.5,14.4,26z"/>
		<path d="M9.9,30.2c-0.5,0.2-0.8,0.7-0.6,1.2c0.2,0.5,0.7,0.8,1.2,0.6c0.5-0.2,0.8-0.7,0.6-1.2C10.9,30.3,10.4,30,9.9,30.2z"/>
		<path d="M18.3,30.7c-0.8,0.3-1.2,1.1-1,1.9c0.3,0.8,1.1,1.2,1.9,1s1.2-1.1,1-1.9C19.9,30.9,19.1,30.5,18.3,30.7z"/>
	</g>
</g>
<path d="M44.9,46.8c-1.4,1-0.2,3,1.4,2.3c3.5-1.6,5.8-5.7,7.1-9.1c0.4-1.2-1.4-1.9-2-0.9C49.3,42.2,48,44.8,44.9,46.8z"/>
<path d="M40.6,48.4L40.6,48.4c-0.6,0.1-1,0.4-1.2,0.9c-0.2,0.7,0.1,1.4,0.6,1.9c0.6,0.4,1.4,0.5,2,0.1c0.8-0.6,1.2-1.7,0.4-2.4
	C42,48.3,41.3,48.2,40.6,48.4z"/>
</svg>
