<?xml version="1.0" encoding="utf-8"?>
<!-- Generator: Adobe Illustrator 24.0.2, SVG Export Plug-In . SVG Version: 6.00 Build 0)  -->
<svg version="1.1" id="Layer_1" xmlns="http://www.w3.org/2000/svg" xmlns:xlink="http://www.w3.org/1999/xlink" x="0px" y="0px"
	 viewBox="0 0 61.9 64" style="enable-background:new 0 0 61.9 64;" xml:space="preserve">
<title>aperitifs</title>
<g>
	<path d="M31,9.2C18.4,9.2,8.1,19.4,8.1,32S18.4,54.9,31,54.9S53.8,44.6,53.8,32S43.6,9.2,31,9.2z M31,18.3
		c-7.6,0-13.7,6.1-13.7,13.7c0,0.8-0.7,1.5-1.5,1.5s-1.5-0.7-1.5-1.5c0-9.2,7.5-16.7,16.7-16.7c0.8,0,1.5,0.7,1.5,1.5
		C32.5,17.7,31.8,18.3,31,18.3z"/>
	<path d="M62.6,31.1c-4.2-5.6-3.8-14.1-3.8-14.2c0.1-0.7-0.3-1.3-0.9-1.5C51.5,12.6,47.6,5,47.5,4.9c-0.3-0.6-0.9-0.9-1.5-0.8
		c-6.9,0.8-14.1-3.8-14.2-3.8c-0.5-0.4-1.2-0.4-1.7,0C24.5,4.4,15.9,4.1,15.8,4C15.2,4,14.6,4.4,14.3,5C11.6,11.4,4,15.3,3.9,15.4
		c-0.6,0.3-0.9,0.9-0.8,1.5C3.9,23.8-0.7,31-0.8,31.1c-0.4,0.5-0.4,1.2,0,1.7c4.3,5.7,3.9,14.3,3.9,14.4C3,47.9,3.4,48.5,4,48.8
		c6.4,2.7,10.3,10.3,10.4,10.4c0.3,0.6,0.9,0.9,1.5,0.8c6.9-0.8,14.1,3.8,14.2,3.8C30.4,64,30.7,64,31,64c0.3,0,0.6-0.1,0.9-0.3
		c5.6-4.2,14.1-3.8,14.2-3.8c0.7,0.1,1.3-0.3,1.5-0.9c2.7-6.4,10.3-10.3,10.4-10.4c0.6-0.3,0.9-0.9,0.8-1.5
		c-0.8-6.9,3.8-14.1,3.8-14.2C63.1,32.3,63,31.6,62.6,31.1z M55.7,46.3c-2.2,1.3-7.7,4.9-10.5,10.5c-2.5,0-9.1,0.4-14.3,3.8
		c-4-2.4-8.6-3.7-13.3-3.9c-0.3,0-0.7,0-1,0c-1.3-2.2-4.9-7.7-10.5-10.5c0-2.5-0.4-9.1-3.8-14.3c1.2-2.1,4.3-8,3.9-14.2
		c2.2-1.3,7.7-4.9,10.5-10.5c2.5,0,9.1-0.4,14.3-3.8c4.3,2.6,9.3,3.9,14.3,3.9c1.3,2.2,4.9,7.7,10.5,10.5c0,2.5,0.4,9.1,3.8,14.3
		C58.4,34.3,55.3,40.2,55.7,46.3L55.7,46.3z"/>
</g>
</svg>
