<?xml version="1.0" encoding="utf-8"?>
<!-- Generator: Adobe Illustrator 24.0.2, SVG Export Plug-In . SVG Version: 6.00 Build 0)  -->
<svg version="1.1" id="Layer_1" xmlns="http://www.w3.org/2000/svg" xmlns:xlink="http://www.w3.org/1999/xlink" x="0px" y="0px"
	 viewBox="0 0 219.8 129.6" style="enable-background:new 0 0 219.8 129.6;" xml:space="preserve">
<style type="text/css">
	.st0{fill:#AC2426;}
	.st1{fill:#181616;}
</style>
<g>
	<g>
		<path class="st0" d="M56.6,129.5v-15h6.2c0.7,0,1.3,0.1,1.8,0.4c0.6,0.3,1,0.6,1.4,1.1s0.7,1,0.9,1.5c0.2,0.6,0.3,1.1,0.3,1.7
			s-0.1,1.2-0.3,1.8c-0.2,0.6-0.5,1.1-0.9,1.5c-0.4,0.5-0.9,0.8-1.4,1.1c-0.5,0.3-1.1,0.4-1.8,0.4h-4.5v5.4L56.6,129.5L56.6,129.5
			L56.6,129.5z M58.5,122.5h4.4c0.4,0,0.7-0.1,1.1-0.2c0.3-0.2,0.6-0.4,0.8-0.7c0.2-0.3,0.4-0.6,0.5-1s0.2-0.8,0.2-1.2
			c0-0.4-0.1-0.8-0.2-1.2c-0.1-0.4-0.3-0.7-0.6-1c-0.2-0.3-0.5-0.5-0.9-0.7c-0.3-0.2-0.7-0.2-1-0.2h-4.2L58.5,122.5L58.5,122.5z"/>
		<polygon class="st0" points="79.9,127.8 79.9,129.5 69.8,129.5 69.8,114.5 79.7,114.5 79.7,116.2 71.7,116.2 71.7,121.1 
			78.7,121.1 78.7,122.7 71.7,122.7 71.7,127.8 		"/>
		<path class="st0" d="M81.2,121.9c0-0.9,0.2-1.8,0.5-2.7c0.3-0.9,0.8-1.7,1.4-2.4c0.6-0.7,1.4-1.3,2.2-1.7c0.9-0.4,1.9-0.7,3-0.7
			c1.3,0,2.5,0.3,3.4,0.9c1,0.6,1.7,1.4,2.1,2.4l-1.5,1c-0.2-0.5-0.5-0.9-0.8-1.2c-0.3-0.3-0.7-0.6-1-0.8c-0.4-0.2-0.8-0.3-1.1-0.4
			c-0.4-0.1-0.8-0.1-1.2-0.1c-0.8,0-1.6,0.2-2.2,0.5s-1.2,0.8-1.6,1.3c-0.4,0.6-0.8,1.2-1,1.9c-0.2,0.7-0.3,1.4-0.3,2.1
			c0,0.8,0.1,1.5,0.4,2.2s0.6,1.3,1.1,1.9c0.5,0.5,1,1,1.6,1.3s1.3,0.5,2.1,0.5c0.4,0,0.8,0,1.2-0.1c0.4-0.1,0.8-0.3,1.2-0.5
			c0.4-0.2,0.7-0.5,1.1-0.8c0.3-0.3,0.6-0.7,0.8-1.2l1.6,0.9c-0.2,0.6-0.6,1.1-1,1.5s-0.9,0.8-1.5,1.1c-0.5,0.3-1.1,0.5-1.7,0.7
			s-1.2,0.2-1.8,0.2c-1,0-2-0.2-2.8-0.7c-0.9-0.5-1.6-1-2.2-1.8c-0.6-0.7-1.1-1.5-1.5-2.5C81.4,123.8,81.2,122.9,81.2,121.9"/>
		<polygon class="st0" points="107.3,116.2 102.2,116.2 102.2,129.5 100.3,129.5 100.3,116.2 95.1,116.2 95.1,114.5 107.3,114.5 		
			"/>
		<path class="st0" d="M115.1,129.6c-1.1,0-2-0.2-2.9-0.6c-0.9-0.4-1.6-1-2.2-1.7s-1.1-1.5-1.4-2.4s-0.5-1.8-0.5-2.8s0.2-2,0.5-2.9
			c0.4-0.9,0.9-1.7,1.5-2.4s1.4-1.3,2.2-1.7c0.9-0.4,1.8-0.6,2.8-0.6c1.1,0,2,0.2,2.9,0.7c0.9,0.4,1.6,1,2.2,1.7s1.1,1.5,1.4,2.4
			s0.5,1.8,0.5,2.8s-0.2,2-0.5,2.9c-0.4,0.9-0.9,1.7-1.5,2.4s-1.4,1.3-2.2,1.7C117.1,129.4,116.1,129.6,115.1,129.6 M110,122
			c0,0.8,0.1,1.5,0.4,2.2c0.2,0.7,0.6,1.3,1,1.9c0.5,0.5,1,1,1.6,1.3s1.3,0.5,2.1,0.5c0.8,0,1.5-0.2,2.1-0.5s1.2-0.8,1.6-1.3
			c0.4-0.6,0.8-1.2,1-1.9c0.2-0.7,0.3-1.4,0.3-2.1c0-0.8-0.1-1.5-0.4-2.2c-0.2-0.7-0.6-1.3-1.1-1.9c-0.5-0.5-1-1-1.6-1.3
			s-1.3-0.5-2.1-0.5c-0.8,0-1.5,0.2-2.1,0.5s-1.2,0.8-1.6,1.3s-0.8,1.2-1,1.9C110.1,120.6,110,121.3,110,122"/>
		<path class="st0" d="M124.8,129.5v-15h6.2c0.7,0,1.3,0.1,1.8,0.4c0.6,0.3,1,0.6,1.4,1.1s0.7,1,0.9,1.5c0.2,0.6,0.3,1.1,0.3,1.7
			s-0.1,1.2-0.3,1.8c-0.2,0.6-0.5,1.1-0.9,1.5s-0.9,0.8-1.4,1.1c-0.5,0.3-1.1,0.4-1.8,0.4h-4.5v5.4L124.8,129.5L124.8,129.5
			L124.8,129.5z M126.7,122.5h4.4c0.4,0,0.7-0.1,1.1-0.2c0.3-0.2,0.6-0.4,0.8-0.7c0.2-0.3,0.4-0.6,0.5-1s0.2-0.8,0.2-1.2
			c0-0.4-0.1-0.8-0.2-1.2c-0.1-0.4-0.3-0.7-0.6-1c-0.2-0.3-0.5-0.5-0.9-0.7c-0.3-0.2-0.7-0.2-1-0.2h-4.2L126.7,122.5L126.7,122.5
			L126.7,122.5L126.7,122.5z"/>
		<path class="st0" d="M141.4,114.5h1.6l6.1,15h-2l-1.8-4.4H139l-1.8,4.4h-2L141.4,114.5z M144.9,123.7l-2.7-6.9l-2.8,6.9H144.9z"/>
		<polygon class="st0" points="163.2,114.5 163.2,129.5 161.3,129.5 161.3,122.7 153.1,122.7 153.1,129.5 151.2,129.5 151.2,114.5 
			153.1,114.5 153.1,121 161.3,121 161.3,114.5 		"/>
	</g>
	<g>
		<path class="st1" d="M27,96.6L14.6,83.7l10.5-10.5c1.5-1.5,2.8-2.5,3.9-3s2.4-0.8,3.9-0.8V68h-2.7c-1.2,0-2.2,0.2-3.1,0.6
			s-1.7,0.9-2.4,1.5c-0.7,0.6-1.5,1.4-2.5,2.5L21,73.7L9.7,85V74.5c0-1.8-0.1-3.2-0.4-4.1c-0.3-0.9-0.8-1.5-1.4-1.9
			c-0.7-0.3-1.7-0.5-3-0.5H0v1.1h1.1c1.5,0,2.5,0.4,3,1.3s0.8,2.2,0.8,4.1v29.1h4.9V85.8L21,97.7c2.4,2.5,4.5,4.2,6.3,5.1
			s3.6,1.4,5.3,1.4c1.3,0,2.4-0.2,3.5-0.5v-1c-1.3-0.2-2.8-0.8-4.4-1.9C30.1,99.6,28.5,98.2,27,96.6"/>
		<path class="st1" d="M53.7,100.9c-1.2,0.7-2.7,1.1-4.5,1.1c-2.6,0-4.5-1-5.9-3.1c-1.3-2-2-4.7-2-8s0.7-5.9,2-8
			c1.3-2,3.3-3.1,5.9-3.1c2,0,3.6,0.6,4.9,1.7c1.3,1.1,2,2.8,2.1,5h1.1c0-2.3-0.1-3.9-0.2-4.8c-0.1-0.9-0.5-1.6-1.1-2.2
			c-1.3-1.3-3.9-1.9-7.8-1.9c-2.6,0-4.8,0.6-6.6,1.8c-1.8,1.2-3.1,2.8-4,4.7c-0.9,2-1.3,4.2-1.3,6.7s0.4,4.7,1.3,6.7
			c0.9,2,2.2,3.6,4,4.7c1.8,1.2,4,1.8,6.6,1.8c2.2,0,4.2-0.4,5.8-1.3s3-2.3,4.2-4.3L57,97.7C56,99.2,54.9,100.2,53.7,100.9"/>
		<path class="st1" d="M72.7,77.7c-1.8,0-3.4,0.2-4.9,0.5s-2.6,0.8-3.2,1.4s-1,1.3-1.1,2s-0.2,1.7-0.2,2.9h2.4
			c0.4-1.7,1.1-2.9,2-3.6c1-0.7,2.3-1,3.9-1c1.8,0,3.2,0.6,4.2,1.9s1.5,3.7,1.5,7.2h-1.6c-4.1,0-7.4,0.6-9.9,1.7
			c-2.5,1.2-3.8,3.1-3.8,5.8c0,1.8,0.4,3.3,1.3,4.4c0.8,1.1,1.9,1.9,3,2.4c1.2,0.5,2.4,0.7,3.5,0.7c1.9,0,3.4-0.3,4.7-0.9
			c1.3-0.6,2.2-1.3,2.9-2.1h0.3l1.9,2.4h2.7V89.1c0-4.4-0.8-7.4-2.5-9C77.9,78.5,75.6,77.7,72.7,77.7 M77.3,98.5
			c-0.6,1-1.4,1.8-2.2,2.4c-0.8,0.6-1.8,0.9-3,0.9c-1.4,0-2.7-0.4-3.6-1.3c-1-0.9-1.5-2.1-1.5-3.8c0-1.6,0.8-2.9,2.3-3.9
			s3.7-1.5,6.3-1.5h1.6L77.3,98.5L77.3,98.5z"/>
		<path class="st1" d="M111.7,101.2c-0.5-0.9-0.8-2.2-0.8-4.1V78.3H106v11.6H95.3v-5.1c0-1.8-0.1-3.2-0.4-4.1s-0.8-1.5-1.4-1.9
			c-0.7-0.3-1.7-0.5-3-0.5h-4.6v1.1h0.8c1.5,0,2.5,0.4,3,1.3s0.8,2.2,0.8,4.1v18.9h4.9V92h10.8v5.1c0,1.8,0.1,3.2,0.4,4.1
			s0.8,1.5,1.4,1.9c0.7,0.3,1.7,0.5,3,0.5h4.6v-1.1h-0.8C113.2,102.5,112.2,102.1,111.7,101.2"/>
		<path class="st1" d="M150.6,98.8v-14c0-1.8-0.1-3.2-0.4-4.1c-0.3-0.9-0.8-1.5-1.4-1.9s-1.7-0.5-3-0.5h-4.6v1.1h0.8
			c1.5,0,2.5,0.4,3,1.3s0.8,2.2,0.8,4.1v18.9h4.9L162,83.1v20.5h4.9V78.3H162L150.6,98.8z"/>
		<path class="st1" d="M190.9,98.2l-6.2-7.8l5.9-8.4c1.1-1.6,2.8-2.4,4.9-2.4v-1.3h-1.4c-1.7,0-3,0.3-4.1,0.9s-2.1,1.5-2.9,2.6
			l-6.7,9.4v-6.5c0-1.8-0.1-3.2-0.4-4.1c-0.3-0.9-0.8-1.5-1.4-1.9c-0.7-0.3-1.7-0.5-3-0.5h-4.9v1.1h1.1c1.5,0,2.5,0.4,3,1.3
			s0.8,2.2,0.8,4.1v18.9h4.9V92l6.2,7.8c2.3,2.9,4.9,4.3,7.8,4.3c1,0,1.9-0.2,2.7-0.5v-1c-1.2-0.2-2.2-0.6-3.2-1.3
			C192.9,100.5,191.9,99.5,190.9,98.2"/>
		<path class="st1" d="M217.3,80.1c-1.7-1.6-4-2.3-6.9-2.3c-1.8,0-3.4,0.2-4.9,0.5s-2.6,0.8-3.2,1.4c-0.6,0.6-1,1.3-1.1,2
			s-0.2,1.7-0.2,2.9h2.4c0.4-1.7,1.1-2.9,2-3.6c1-0.7,2.3-1,3.9-1c1.8,0,3.2,0.6,4.2,1.9s1.5,3.7,1.5,7.2h-1.6
			c-4.1,0-7.4,0.6-9.9,1.7c-2.5,1.2-3.8,3.1-3.8,5.8c0,1.8,0.4,3.3,1.3,4.4c0.8,1.1,1.9,1.9,3,2.4c1.2,0.5,2.4,0.7,3.5,0.7
			c1.9,0,3.4-0.3,4.7-0.9s2.2-1.3,2.9-2.1h0.3l1.9,2.4h2.7V89.1C219.8,84.6,219,81.6,217.3,80.1 M215,98.5c-0.6,1-1.4,1.8-2.2,2.4
			s-1.8,0.9-3,0.9c-1.4,0-2.7-0.4-3.6-1.3c-1-0.9-1.5-2.1-1.5-3.8c0-1.6,0.8-2.9,2.3-3.9s3.6-1.5,6.3-1.5h1.6L215,98.5L215,98.5z"/>
		<path class="st1" d="M117.2,82.6v3.2h1.1c0-1.7,0.5-3,1.6-4c1-1,2.4-1.4,4.1-1.4l3.8-0.2l-1.1,23.4h4.9L130.4,80l9.9-0.7l0,0v-1
			h-19.1C118.5,78.3,117.2,79.7,117.2,82.6"/>
	</g>
	<g>
		<path class="st0" d="M63,15.8c0.6,0.9,1.3,1.8,2,2.5c0.8,0.7,1.6,1.4,2.5,1.9s1.8,1,2.8,1.4s2,0.6,3,0.9l1.5,0.3l1.5,0.2l1.6,0.1
			h1.6c1-0.1,2.1-0.1,3.1-0.2s2.1-0.3,3.1-0.5s2.1-0.4,3.1-0.7c1-0.3,2-0.5,3-0.8l1.5-0.5l1.5-0.5l1.5-0.5l1.5-0.6l1.5-0.6l1.5-0.6
			c1-0.4,2-0.8,2.9-1.3c1-0.4,2-0.9,2.9-1.3l2.9-1.4l1.9-0.9l1.3,1.6c0.6,0.8,1.4,1.7,2.1,2.5c0.8,0.8,1.5,1.6,2.4,2.4
			c0.8,0.8,1.7,1.5,2.5,2.2l1.3,1l1.3,1l1.4,0.9l1.4,0.9l1.4,0.8l1.5,0.7c1,0.4,2,0.9,3,1.2c1,0.3,2.1,0.6,3.1,0.8l0.8,0.2l0.8,0.1
			c0.5,0.1,1.1,0.1,1.6,0.1s1.1,0.1,1.6,0l1.6-0.1l1.6-0.3c0.5-0.1,1.1-0.3,1.6-0.4l0.8-0.2l0.8-0.3c0.5-0.2,1.1-0.3,1.6-0.6
			c1-0.5,2.1-0.9,3-1.5c0.5-0.3,1-0.5,1.5-0.9c0.5-0.3,1-0.6,1.4-1c0.5-0.3,0.9-0.7,1.4-1l1.4-1.1c0.9-0.7,1.8-1.5,2.7-2.3
			c-0.7,1-1.4,1.9-2.1,2.9l-1.2,1.3c-0.4,0.4-0.8,0.9-1.2,1.3c-0.9,0.8-1.7,1.7-2.7,2.4c-0.9,0.8-2,1.4-3,2.1
			c-0.5,0.3-1.1,0.6-1.6,0.9l-0.8,0.4l-0.9,0.3c-0.6,0.2-1.2,0.5-1.8,0.6l-1.8,0.5c-1.2,0.2-2.5,0.4-3.8,0.5c-0.6,0.1-1.3,0-1.9,0
			h-1l-1-0.1c-0.6-0.1-1.3-0.1-1.9-0.3c-0.6-0.1-1.3-0.2-1.9-0.4c-1.2-0.3-2.4-0.7-3.6-1.2l-1.7-0.7l-1.7-0.8l-1.6-0.9l-1.6-1
			l-1.5-1.1l-1.5-1.1c-1-0.8-1.9-1.6-2.8-2.4s-1.8-1.7-2.6-2.6c-0.9-0.9-1.6-1.8-2.5-2.9l3.1,0.8l-3,1.4c-1,0.5-2,0.9-3.1,1.3
			c-1,0.4-2.1,0.8-3.1,1.2l-1.6,0.6l-1.6,0.5l-1.6,0.5l-1.6,0.5l-1.6,0.4L93,24.9c-1.1,0.3-2.2,0.5-3.3,0.7
			c-1.1,0.2-2.2,0.3-3.4,0.5c-1.1,0.1-2.3,0.2-3.4,0.2s-2.3,0-3.4-0.1L77.7,26L76,25.7c-0.6-0.1-1.1-0.3-1.7-0.4
			c-0.6-0.2-1.1-0.3-1.7-0.5c-1.1-0.4-2.1-0.9-3.1-1.5s-1.9-1.2-2.8-2s-1.6-1.6-2.3-2.5C63.9,17.8,63.3,16.9,63,15.8z"/>
		<path class="st0" d="M61.4,59.7c0,0,1-1.8,2.6-4.9c0.8-1.6,1.9-3.4,3-5.6c1.1-2.2,2.4-4.6,3.8-7.3s2.8-5.6,4.4-8.6
			c1.5-3.1,3-6.4,4.5-9.8c1.4-3.4,2.7-7,3.6-10.6c0.4-1.8,0.7-3.6,0.5-5.1c-0.1-0.7-0.3-1.4-0.5-1.8c-0.3-0.4-0.5-0.6-1-0.8
			c-0.2,0-1.1-0.2-1.3,0.4S80.8,7,80.8,7.9s0.1,1.8,0.2,2.7c0.5,3.7,1.3,7.4,2.3,11s2,7.1,3,10.3c1.1,3.3,2,6.4,3,9.2
			c3.8,11.5,6.3,19.1,6.3,19.1s-0.3-0.4-0.7-1.3c-0.5-0.8-1.1-2-2-3.6C92,53.9,91,52,90,49.8c-1.1-2.2-2.3-4.7-3.5-7.5
			s-2.6-5.8-3.8-9c-1.3-3.2-2.6-6.7-3.7-10.3c-1.1-3.7-2.3-7.5-2.9-11.6c-0.2-1-0.3-2.1-0.3-3.2s0-2.3,0.3-3.7
			c0.2-0.7,0.4-1.4,1-2.2c0.5-0.8,1.4-1.5,2.4-1.8C79.9,0.1,80.6,0,81,0h0.4h0.1l0,0c0.4,0,0.1,0,0.3,0h0.3c0.7,0.1,1.4,0.2,2,0.5
			c1.4,0.5,2.8,1.6,3.6,3c0.8,1.3,1.1,2.7,1.2,4c0.2,2.5-0.2,4.7-0.7,6.7c-0.5,2.1-1.2,4-1.9,5.9c-0.7,1.9-1.5,3.7-2.4,5.4
			c-1.6,3.5-3.5,6.7-5.2,9.7c-1.8,3-3.5,5.8-5.2,8.3s-3.3,4.8-4.7,6.8c-1.4,2-2.7,3.7-3.8,5.1c-1.1,1.4-2,2.5-2.6,3.2
			C61.7,59.4,61.4,59.7,61.4,59.7z"/>
		<path class="st0" d="M143.4,60.8c-1.2-2.2-2.4-4.4-3.5-6.6c-1.2-2.2-2.2-4.4-3.3-6.7c-1.1-2.2-2.1-4.5-3.1-6.8s-2-4.6-2.9-6.9
			c-0.9-2.3-1.8-4.7-2.6-7.1c-0.8-2.4-1.5-4.8-2.1-7.3s-1.1-5-1.1-7.9c0-0.7,0.1-1.5,0.2-2.3c0.2-0.8,0.4-1.7,1-2.6s1.7-1.8,2.8-2.1
			c0.3-0.1,0.6-0.1,0.8-0.2c0.3,0,0.5,0,0.8,0s0.5,0,0.7,0.1h0.2h0.1l0,0h0.2h0.2c0.2,0,0.3,0,0.5,0.1s0.5,0.2,0.7,0.2
			c0.5,0.2,0.9,0.4,1.3,0.6c0.8,0.5,1.5,1.2,2.1,1.9c1.1,1.5,1.5,3.1,1.7,4.6s0.2,2.9,0.1,4.2c-0.1,1.4-0.3,2.7-0.5,4
			c-1,5.1-2.7,9.9-4.6,14.6c-1.9,4.7-4.1,9.2-6.4,13.7c-1.2,2.2-2.4,4.4-3.7,6.6c-1.3,2.2-2.5,4.3-4,6.4l-1.3-2.5l6.4,0.3l6.4,0.4
			c2.1,0.1,4.3,0.3,6.4,0.5C139.1,60.4,141.3,60.6,143.4,60.8z M143.4,60.8c-2.1,0.2-4.3,0.3-6.4,0.5c-2.2,0.1-4.3,0.3-6.4,0.4
			l-6.4,0.3l-6.4,0.2l-2.8,0.1l1.5-2.6c1.2-2.1,2.3-4.3,3.4-6.5s2.1-4.4,3.1-6.7c2.1-4.5,4-9,5.7-13.6c0.9-2.3,1.7-4.6,2.4-6.9
			s1.3-4.6,1.8-6.9c0.4-2.3,0.7-4.6,0.5-6.6c-0.1-1-0.4-1.8-0.8-2.4c-0.2-0.3-0.4-0.5-0.6-0.6c-0.1-0.1-0.3-0.1-0.4-0.2
			c0,0-0.1,0-0.1-0.1c-0.1,0-0.3-0.1-0.4-0.1C130.8,9,130.5,9,130.5,9s0-0.1-0.1,0.1c-0.1,0.1-0.2,0.5-0.3,0.9s-0.2,0.9-0.2,1.4
			c-0.1,2.1,0.3,4.5,0.7,6.8c0.5,2.3,1,4.7,1.6,7.1s1.3,4.7,2,7.1s1.5,4.7,2.2,7.1l2.4,7L143.4,60.8z"/>
	</g>
</g>
</svg>
