<?xml version="1.0" encoding="utf-8"?>
<!-- Generator: Adobe Illustrator 24.0.2, SVG Export Plug-In . SVG Version: 6.00 Build 0)  -->
<svg version="1.1" id="Layer_1" xmlns="http://www.w3.org/2000/svg" xmlns:xlink="http://www.w3.org/1999/xlink" x="0px" y="0px"
	 viewBox="0 0 64 64" style="enable-background:new 0 0 64 64;" xml:space="preserve">
<g transform="translate(131.02975,-196.70833)">
	<path d="M-99,260.7 M-99,259.4"/>
</g>
<g>
	<path d="M50.6,22.8c-6.1-2.1-12.6-2.3-18.9-0.9c-6.4,1.4-12.4,3.2-19,1.9c-2.2-0.4-3.2,2.9-0.9,3.4c2.1,0.4,4.2,0.6,6.3,0.6
		c-0.1,0.1-0.3,0.3-0.4,0.5c-0.1,0.5-0.1,0.9,0,1.4c0,0.2,0.1,0.4,0.1,0.6c0.1,0.4,0.1,0.7,0.5,1.1c0.6,0.6,1.8,0.4,1.9-0.5
		c0.1-0.4,0.1-0.6-0.1-0.9c-0.1-0.3-0.2-0.6-0.4-0.8c-0.2-0.4-0.4-0.9-0.7-1.2c-0.1-0.1-0.1-0.1-0.2-0.1c2.1-0.1,4.2-0.3,6.2-0.7
		c4.4-0.9,8.8-2.4,13.3-2.5c8.6-0.4,19.3,2.7,21.8,11.9c1.1,4.1,0.1,8.7-2.8,11.8c-2.8,3-6.7,3.8-10.6,4.1c-9,0.7-18.1-1.1-26.6-4.1
		c-5.1-1.8-9.5-4-13.3-8C3.7,37,2.5,28.4,8.2,26.7C9,26.5,8.9,25.1,8,25.2c-4.2,0.4-6,4.1-6.4,7.9c-2.5,2.5-1.7,8.4-0.4,11.1
		c2.4,5.2,6.9,9,12,11.5c6.7,3.3,14.5,4.9,21.7,6.1c6.2,1.1,14.2,2.4,20.1-0.4c5.5-2.6,8.9-9.9,8-15.8c0.1-0.3,0.2-0.6,0.3-0.9
		C66.4,34.9,59.4,26,50.6,22.8z M60.4,50.6c-0.3,1.8-1.1,3.5-2.3,4.9c-2.3,2.7-5.2,4-8.7,4.3c-7.7,0.6-15.7-1.1-23.1-2.9
		c-6.4-1.6-13.8-3-18.8-7.9c-2.2-2.1-4.6-4.8-5.4-7.9c-0.1-1-0.3-2.3-0.3-3.5c1,3.7,3.7,6.5,6.8,9c4.4,3.5,10,5.2,15.3,6.8
		c5.4,1.5,10.9,2.4,16.5,2.7c4.5,0.2,9.6,0,13.8-1.7c2.4-1,4.5-2.6,6.2-4.7C60.5,50,60.5,50.3,60.4,50.6z"/>
	<path d="M16.2,34.1c0.8-0.4,1-1.3,0.2-1.8c-2.7-1.9-6.1,0.4-6.5,3.4c-0.4,3.4,2.7,5.7,5.6,6.8c2.9,1,6.4,0.7,7.6-2.6
		c1.1-3.1-1.1-5.9-4.2-6.2c-1.9-0.2-1.9,2.9,0,3c1.9,0.1,2.3,2.7,0.5,3.4c-1.3,0.5-3.2-0.3-4.2-0.9c-1.1-0.6-2.4-1.4-2.2-2.9
		C13,34.2,14.9,34.7,16.2,34.1z"/>
	<path d="M25.7,33.5c0.8,1.4,3.1,0.5,2.6-1.1c-0.3-1-0.9-1.9-1.4-2.7c-0.4-0.8-0.9-1.6-1.7-2.1c-0.4-0.2-0.9,0-1,0.4
		c-0.2,0.9,0.1,1.8,0.4,2.6C24.9,31.7,25.2,32.7,25.7,33.5z"/>
	<path d="M31.2,39.4c-0.5-0.9-0.8-1.9-1.5-2.6c-0.4-0.4-1.2-0.2-1.3,0.4c-0.1,1.1,0.1,2.1,0.5,3.2c0.4,1.1,0.8,2.3,1.6,3.2
		c0.9,0.9,2.6,0,2.1-1.3C32.4,41.2,31.7,40.3,31.2,39.4z"/>
	<path d="M32.5,46.4c-0.2,0.6,0.6,3.6,1.1,4.2c0.4,0.4,1.1,0.4,1.5,0.2c0.5-0.3,0.7-0.9,0.6-1.4c-0.1-0.6-1.3-2.9-1.7-3.4
		C33.4,45.6,32.6,45.8,32.5,46.4z"/>
	<path d="M23.5,42.7c-0.3,1.5,0.2,3.4,0.6,4.8c0.5,1.8,3.2,1,2.7-0.8c-0.4-1.4-0.9-3.3-1.9-4.4C24.6,41.7,23.6,42,23.5,42.7z"/>
	<path d="M36.5,31.1c-0.7-1.6-1.3-3.3-2.4-4.7c-0.4-0.5-1.2-0.4-1.2,0.4c0,3.3,1.4,7.2,2.9,10.1c0.7,1.4,3.1,0.4,2.6-1.1
		C37.9,34.1,37.2,32.6,36.5,31.1z"/>
	<path d="M38.5,40.2c0.5,3.1,2.1,6.4,3.6,9.1c0.8,1.6,3.1,0.2,2.4-1.4c-1.2-2.8-2.6-6.1-4.7-8.5C39.2,38.8,38.4,39.5,38.5,40.2z"/>
	<path d="M45.8,29.1c-0.5-0.9-1.1-1.8-1.9-2.6c-0.4-0.4-1.1-0.1-1.1,0.4c0.1,1,0.4,1.9,0.8,2.9c0.4,1,0.8,2.2,1.5,3.2
		c0.8,1.1,2.7,0.5,2.2-0.9C47,31,46.3,30.1,45.8,29.1z"/>
	<path d="M49.5,38.8c-0.4-0.7-0.7-1.4-1.1-2.1c-0.3-0.6-1.3-0.3-1.2,0.4c0.1,1.6,0.4,3.8,1.6,5c0.8,0.9,2.2-0.1,1.9-1.1
		C50.4,40.1,49.8,39.5,49.5,38.8z"/>
	<path d="M50.6,45.6c0.4,1.2,0.6,2.5,1.3,3.6c0.6,1.2,2.7,0.4,2.3-0.9c-0.4-1.2-1.1-2.3-1.8-3.4C51.8,44,50.3,44.6,50.6,45.6z"/>
	<path d="M57.4,38.5c-0.7-1.9-1.6-4.2-3.3-5.2c-0.4-0.3-1.1,0.1-1.1,0.6c0.2,1.9,1.2,3.6,1.6,5.4C55.1,41,58.1,40.1,57.4,38.5z"/>
	<path d="M26.4,19.7c1.8-1.7,2-4.9,1.4-7.2c-0.4-1.4-1.5-2.4-1.9-3.7c-0.6-1.6,0.1-3.1,1.3-4.2c0.6-0.6,0.1-1.7-0.7-1.7
		C23.9,3,22.8,6.5,23,8.6c0.2,1.7,1.4,2.8,2,4.4c0.7,2.1-0.1,3.5-0.7,5.4C23.8,19.8,25.5,20.6,26.4,19.7z"/>
	<path d="M32.3,15c-1.6,1.3,0.9,3.9,2.3,2.3c1.6-1.8,2.5-4.2,2.1-6.6c-0.2-1.2-0.9-2.1-1.4-3.2c-1.2-2.3-0.1-3.2,0.4-5.5
		c0.1-0.6-0.5-1.1-1.1-0.9c-1.9,1-2.9,3.7-2.4,5.9c0.3,1.3,1.2,2.2,1.6,3.4C34.3,12.2,33.7,13.8,32.3,15z"/>
</g>
</svg>
