<?xml version="1.0" encoding="utf-8"?>
<!-- Generator: Adobe Illustrator 24.0.2, SVG Export Plug-In . SVG Version: 6.00 Build 0)  -->
<svg version="1.1" id="Layer_1" xmlns="http://www.w3.org/2000/svg" xmlns:xlink="http://www.w3.org/1999/xlink" x="0px" y="0px"
	 viewBox="0 0 64 64" style="enable-background:new 0 0 64 64;" xml:space="preserve">
<g>
	<path d="M0,51c-0.2,0.7,0.6,1.1,1.1,0.7c0.7-0.6,1.5-1.1,2.2-1.7c0.2-0.1,0.5-0.4,0.8-0.5c0.9,3.2,3.9,5.5,7,6.4
		c5.3,1.6,10.9-0.1,15.9-1.9c9.7-3.3,19.6-8.1,27-15.4c3.2-3.2,7.7-7.5,8.5-12.1c0.4-2.2-0.4-4.3-1.9-5.9c0.4-0.2,0.8-0.5,1.1-0.8
		c0.8-0.6,1.7-1.1,2-2.1c0.1-0.3,0.1-0.6-0.2-0.9c-0.9-0.4-1.9-0.2-2.9,0.1c-0.6,0.2-1.1,0.4-1.7,0.6c0.1-1.1,0.2-2.2,0.1-3.3
		c-0.1-1.3-1.8-1.5-2.2-0.3c-0.4,1.1-0.6,2.4-0.9,3.7c-0.1,0-0.1-0.1-0.2-0.1c-5.2-1.6-8.5,1.9-11.9,5.2c-4.3,3.9-8.8,8-14,10.8
		c-5.4,2.9-11.1,3.8-17,4.7c-2.5,0.4-5.1,0.6-7,2.4c-1.1,1-1.9,2.2-2.3,3.5l0,0c-0.7-0.4-1.5-1.1-2.3-1.4c-0.7-0.2-1.5,0.5-1.2,1.2
		c0.4,1.1,1.6,2.3,2.9,2.9c-0.4,0.4-0.9,0.6-1.3,1C0.8,49,0.3,49.9,0,51z M8.6,43.7c0.7-0.6,1.6-0.9,2.5-1.1
		c2.1-0.4,4.2-0.7,6.3-1.1c3.7-0.8,7.5-1.8,11-3.3c7.9-3.4,14.5-9.4,20.7-15.3c1.6-1.5,3.2-2.6,5.4-2.2c1.9,0.4,4,1.7,4.7,3.6
		c0.7,2-0.6,3.9-1.7,5.5c-1.3,1.9-2.8,3.7-4.4,5.3c-5.8,5.9-13.5,10.1-20.9,13.4c-4.3,1.9-9,3.8-13.8,4.5C14,53.6,8.1,52.5,6.9,47.6
		C6.9,47.5,6.9,45.2,8.6,43.7z"/>
	<path d="M20.2,24.6c-1.7,1.1-0.1,3.9,1.7,2.8c2.4-1.4,3.6-4.7,2.8-7.4c-0.4-1.7-1.9-2.7-2.4-4.2c-0.7-2,0.9-3.2,1.8-4.7
		c0.2-0.3,0-0.8-0.4-0.9c-2.7-0.6-4.4,2.7-4.2,5c0.1,1.6,1,2.7,1.8,3.9C22.6,21.2,22.4,23.2,20.2,24.6z"/>
	<path d="M29.3,21.7c-1.7,0.8-0.1,3.5,1.4,2.5c2.7-1.7,4.2-4.7,3.1-7.8c-0.5-1.5-1.5-2.4-2.6-3.5c-1-1-1.2-2-0.4-3.2
		c0.4-0.6,0.9-1.1,1-1.9c0-0.1,0-0.3-0.1-0.3c-2.4-0.6-4.3,2.7-3.8,4.7c0.4,1.4,1.5,2.3,2.4,3.4C32.1,17.7,31.8,20.5,29.3,21.7z"/>
	<path d="M14.8,49.5c0.3-0.9,0-1.8-0.1-2.7c-0.1-0.9,0-1.7-0.2-2.5c-0.1-0.7-1.1-0.8-1.5-0.2c-0.5,0.9-0.6,1.8-0.8,2.7
		c-0.1,1-0.2,2.1,0.4,2.9C13.2,50.7,14.5,50.5,14.8,49.5z"/>
	<path d="M24,48.2c0.6,0.4,1.5-0.1,1.7-0.7c0.3-0.9-0.1-1.7-0.4-2.5c-0.3-0.9-0.5-1.7-0.9-2.5c-0.4-1.1-2.2-1-2.1,0.3
		c0.1,1,0.2,1.9,0.4,2.9C23,46.7,23.2,47.6,24,48.2z"/>
	<path d="M37.7,42.4c-0.6-0.8-1.1-1.6-1.6-2.4c-0.5-0.8-0.9-1.7-1.4-2.4c-0.4-0.6-1.6-0.1-1.5,0.6c0.2,1.9,1.4,3.8,2.4,5.4
		C36.4,44.9,38.6,43.7,37.7,42.4z"/>
	<path d="M45.5,34.4c0.8,0.9,1.9,1.7,3,1.9c1.1,0.1,1.4-1.3,0.8-2c-0.6-0.7-1.7-1.1-2.5-1.6s-1.4-1.2-2.2-1.8
		c-0.4-0.4-1.1,0.2-0.9,0.7C44,32.7,44.7,33.6,45.5,34.4z"/>
	<path d="M52.2,28.2c0.7,0.6,1.4,1.5,2.3,1.9c1.1,0.5,2.5-0.6,1.8-1.8c-0.6-0.9-1.7-1.6-2.5-2.2c-0.9-0.6-1.9-1.1-2.9-1.5
		c-0.9-0.4-1.7,1.1-1,1.7C50.7,26.9,51.5,27.6,52.2,28.2z"/>
</g>
</svg>
