<?xml version="1.0" encoding="utf-8"?>
<!-- Generator: Adobe Illustrator 24.0.2, SVG Export Plug-In . SVG Version: 6.00 Build 0)  -->
<svg version="1.1" id="Layer_1" xmlns="http://www.w3.org/2000/svg" xmlns:xlink="http://www.w3.org/1999/xlink" x="0px" y="0px"
	 viewBox="0 0 64 64" style="enable-background:new 0 0 64 64;" xml:space="preserve">
<g>
	<path d="M63,54c-0.6,0-1.2-0.1-1.8-0.1c-0.2-5.5-2-10.6-5.3-15c-1.7-2.1-3.5-3.9-5.7-5.5c-1.3-0.9-3-2-4.6-2.5
		c-0.9-2.7-5.2-4.3-7.5-4.6c-3-0.4-5.8,0.6-7.9,2.5c-1.7-0.5-3.8,0.4-5.1,1.2c-0.4,0.3-0.8,0.6-1.2,0.9c0.3-5,6.7-9.5,4.3-14.5
		c1-0.1,2-0.2,2.9-0.5c3.3-1,3.9-3.5,4-6.2c0.4,0,12.2-0.1,17.6,0.4c2.5,0.2,2.5-4,0-3.8c-5.4,0.4-17.3,0.4-17.7,0.4
		c-0.1-3.3-0.9-6-4.7-6.4c-2.4-0.2-4.8-0.4-7.2-0.3c-1.2,0-3-0.2-4.3,0.1c-2.4,0-5.2,2.5-6.1,4.2c-1.9,3.2-1.2,7.5,0.9,10.5
		c1.1,1.4,2.9,2.4,3.8,3.9c1.3,2.1-0.9,4.4-2,6.1c-2.3,3.5-3.3,7-0.7,10.6c0.3,0.4,0.7,0.6,1,0.7c-2.7,1.8-5.2,4-7.2,6.4
		c-1.6,2-2.9,4.1-3.9,6.4c-0.5,1.2-1.4,3-1.4,4.6c-0.9,0.1-1.7,0.3-2.6,0.5c-0.7,0.2-0.7,1.3,0,1.4c0.9,0.1,1.7,0.2,2.5,0.4
		c0,0.1,0.1,0.3,0.1,0.4c0.7,1.4,1.4,2.7,2.2,4c0.7,1.2,1.1,2.8,2.5,3.3c1.2,0.4,2.8,0.1,4.1,0.1c4.3-0.1,8.5,0,12.9,0
		c9,0.1,18,0.2,27,0.4c2.5,0.1,4.2-0.2,5.7-2.2c1.3-1.7,2.3-3.7,3.3-5.6l0,0c0.7,0,1.5,0,2.2,0C64.4,56.2,64.3,54.1,63,54z
		 M30.1,33.9c1.4-2.7,3.8-4.6,6.9-4.7c1.6-0.1,3.2,0.2,4.6,0.9c0,0,0,0,0.1,0c-1.8-0.1-3.8,0.5-5.2,1.3c-2.9,1.5-4.6,4.3-4.9,7.5
		c-0.3,2.7,0.7,5.4,1.7,7.9c0.9,2.1,1.8,4.2,3,6.1c-0.8,0-1.6,0-2.5,0c0-0.1-0.1-0.1-0.1-0.2C30.5,47.1,26.7,40.5,30.1,33.9z
		 M43.6,46.5c-2.3-1.7-5.3-2.4-8.1-1.9c-0.4-0.9-0.7-1.9-0.9-2.8c-0.2-0.9-0.3-1.7-0.2-2.5c1.7,0.2,3.4,0.3,5.1,0.7
		c2.4,0.6,4.6,1.5,6.6,3c3.5,2.5,6,6.5,7.1,10.7c-1.7-0.1-3.5-0.1-5.1-0.2C47.1,50.8,45.9,48.1,43.6,46.5z M44.4,53.3
		c-1.5-0.1-3-0.1-4.5-0.1c-1.2-1.8-2.3-3.8-3.3-5.9c1.9,0.1,3.7,0.5,5.1,1.8C43.1,50.2,43.8,51.7,44.4,53.3z M25.4,32.9
		c0.7-0.7,1.6-1.2,2.5-1.5c-1.9,2.9-2.6,6.5-2.3,9.9C26,45.6,28,49.4,30,53.1c-1.7,0-3.3,0-4.9,0l0,0c-1.7-4.5-3.5-9.2-2.7-14.1
		C22.7,36.6,23.7,34.4,25.4,32.9z M29.2,13.3c-1.4,0.2-3,0.1-4.6,0c-0.9-0.5-1.7-1-2.4-1.8c-0.5-0.7-0.8-1.4-0.8-2.1
		c2,0.3,9.1,0.2,10.7,0.2C32.1,11.4,31.6,13,29.2,13.3z M24.6,2.8c0.1,0,4.1-0.1,5.6,0.3C32,3.6,32,5,32,6.7c-1.4,0-8.2,0-10.1,0.1
		C22.5,5.3,23.6,3.9,24.6,2.8z M20.1,23.5c1.3-2.5,1.3-5.1-0.6-7.2c-1-1.2-2.5-2.1-3.4-3.4c-1-1.4-1.5-3.3-1.3-5.1
		c0.2-1.8,1.3-3,2.7-4.1c0.7-0.4,1.3-0.7,1.9-1.2c0.2,0,1.5,0,2,0.1c-1.1,1.2-2,2.6-2.5,4.1c-1.1,2.9-0.2,5.5,1.9,7.4
		c-0.4,1.1,0.1,2.5,1.6,2.4c0.7,0,1.3-0.1,2-0.1c0.3,0.2,0.5,0.4,0.7,0.7c1.3,1.8-0.4,4.2-1.4,5.9c-2,3.2-3.5,5.7-3,9.6
		c0,0.3,0.1,0.5,0.2,0.7c-1,0.4-2.1,0.9-3.1,1.4c0.1-0.4,0-0.7-0.3-1.1C14.7,29.8,18.3,27,20.1,23.5z M22.1,53.1
		c-3.2,0-6.4,0.1-9.6,0.1c0.7-1.6,2.2-3.3,3.1-4.4c1.2-1.4,2.6-2.4,4.1-3.3C20.2,48.1,21.2,50.6,22.1,53.1z M6.9,49.9
		c1-2.1,2.2-4.3,3.8-6c2.7-3,5.9-5,9.2-6.9c-0.6,1.8-0.7,3.7-0.6,5.6c-2.4,1.1-4.4,2.6-6.1,4.7c-1.2,1.5-3,4-3.1,6.1
		c-0.5,0-1.1,0-1.6,0c-0.9,0-1.9,0.1-2.9,0.1C6.2,52.1,6.5,50.8,6.9,49.9z M55.8,58.9c-0.7,1.1-1.2,2-2.5,2.2
		C52.7,61.2,52,61,51.5,61c-3.4-0.1-6.9-0.2-10.3-0.2c-8.8-0.1-17.6-0.3-26.4,0c-1.6,0.1-3.2,0.1-4.8,0.3c-1.2,0.1-1.6-0.4-2.2-1.5
		c-0.7-1.2-1.6-2.4-2.3-3.5c4.6,0.3,9.3,0.1,13.9,0.1c10,0,20.2,0.1,30.2,0.1c2.6,0,5.3,0,7.9,0C56.9,57.1,56.4,58,55.8,58.9z
		 M57.9,53.7c-0.4,0-0.8-0.1-1.2-0.1c-1.6-5-4.3-9.6-8.6-12.7c-3.4-2.5-8.8-4.1-13.2-3.3c0.3-0.9,0.8-1.8,1.5-2.6
		c1.2-1.2,2.7-1.8,4.3-2c1.3-0.1,2.6,0.2,3.9,0.1c1.2,0.7,2.4,1.3,3.4,2.1c2,1.4,3.9,3.3,5.4,5.3C56.2,44.4,58,49,57.9,53.7z"/>
</g>
</svg>
