<?xml version="1.0" encoding="utf-8"?>
<!-- Generator: Adobe Illustrator 19.2.1, SVG Export Plug-In . SVG Version: 6.00 Build 0)  -->
<svg version="1.1" id="Layer_1" xmlns="http://www.w3.org/2000/svg" xmlns:xlink="http://www.w3.org/1999/xlink" x="0px" y="0px"
	 viewBox="0 0 64 64" style="enable-background:new 0 0 64 64;" xml:space="preserve">
<g>
	<path d="M11.8,23.1v1c0,0.9,0.6,1.5,1.5,1.5h0.5v0.5c0,1.9,1.5,3.4,3.4,3.4s3.4-1.5,3.4-3.4v-0.5h0.5c0.9,0,1.5-0.6,1.5-1.5v-1
		c0-2.9-2.7-4.4-5.4-4.4S11.8,20.2,11.8,23.1z M17.7,24.1v2c0,0.3-0.2,0.5-0.5,0.5c-0.3,0-0.5-0.2-0.5-0.5v-2c0-0.9-0.6-1.5-1.5-1.5
		h-0.4c0.4-0.8,1.8-1,2.3-1s1.9,0.2,2.3,1h-0.4C18.3,22.6,17.7,23.3,17.7,24.1z"/>
	<path d="M37.8,50.9c-0.1-0.4-0.4-0.7-0.8-0.9c-0.4-0.1-0.7-0.1-1.1,0c-0.5,0.2-0.9,0.2-1.5,0.1c-1.4-0.3-2.8-0.1-4.1,0.6
		c-0.8,0.5-1.8,0.5-2.6,0c-1.2-0.8-2.7-1-4.1-0.7c-1,0.2-1.9-0.1-2.6-0.8c-0.9-1.1-2.3-1.8-3.8-2c-1-0.1-1.8-0.7-2.1-1.6
		c-0.5-1.3-1.6-2.4-2.9-2.9c-0.9-0.3-1.5-1.1-1.5-2.1c-0.1-1.4-0.8-2.7-1.9-3.8c-0.7-0.7-1.1-1.7-0.8-2.6c0.3-1.4,0.1-2.8-0.6-4.1
		c-0.5-0.8-0.5-1.8,0-2.6c0.7-1.2,1-2.7,0.7-4.1c-0.2-1,0.1-1.9,0.8-2.6c1.1-0.9,1.8-2.3,2-3.8c0.1-1,0.7-1.8,1.6-2.1
		c1.3-0.5,2.4-1.6,2.9-2.9c0.3-0.9,1.1-1.5,2.1-1.5c1.4-0.1,2.7-0.8,3.8-1.9c0.7-0.8,1.7-1.1,2.6-0.8c1.4,0.3,2.8,0.1,4.1-0.6
		c0.8-0.5,1.8-0.5,2.6,0c1.2,0.7,2.7,1,4.1,0.7c1-0.2,1.9,0.1,2.6,0.8c0.9,1.1,2.3,1.8,3.8,2c1,0.1,1.8,0.7,2.1,1.6
		c0.5,1.3,1.6,2.4,2.9,2.9c0.9,0.3,1.5,1.1,1.5,2.1c0.1,1.4,0.8,2.7,1.9,3.8c0.8,0.7,1.1,1.7,0.8,2.6c0,0.1,0,0.2-0.1,0.3
		c-0.6-2.4-2.7-4.1-5.3-4.1c-3,0-5.4,2.4-5.4,5.4s2.4,5.4,5.4,5.4c2.7,0,4.9-1.9,5.3-4.5c0.1,0.5,0.3,1.1,0.6,1.6
		c0.5,0.8,0.5,1.8,0,2.6c-0.2,0.3-0.3,0.7-0.2,1.1c0.1,0.4,0.3,0.7,0.7,0.9c0.3,0.2,0.7,0.3,1.1,0.2c0.4-0.1,0.7-0.3,0.9-0.7
		c1.1-1.7,1.1-4,0-5.8c-0.4-0.5-0.5-1.2-0.3-1.8c0.6-2-0.1-4.1-1.8-5.5c-0.5-0.3-0.8-0.9-0.9-1.7c-0.1-2.1-1.4-3.9-3.4-4.7
		c-0.7-0.3-1.2-0.9-1.4-1.4c-0.7-1.8-2.5-3.1-4.6-3.4c-0.7-0.1-1.4-0.4-1.8-0.9c-1.3-1.5-3.4-2.2-5.4-1.7C33,5.2,32.3,5,31.9,4.7
		c-1.7-1.1-4-1.1-5.8,0c-0.5,0.4-1.2,0.5-1.8,0.3c-2-0.6-4.1,0.1-5.5,1.8c-0.3,0.5-0.9,0.8-1.7,0.9c-2.1,0.1-3.9,1.4-4.7,3.4
		c-0.3,0.7-0.9,1.2-1.4,1.4c-1.8,0.7-3.1,2.5-3.4,4.6c-0.1,0.7-0.4,1.4-0.9,1.8c-1.5,1.3-2.2,3.4-1.7,5.4C5.2,25,5,25.7,4.7,26.1
		c-1.1,1.7-1.1,4,0,5.8c0.4,0.5,0.5,1.2,0.3,1.8c-0.6,2,0.1,4.1,1.8,5.5c0.5,0.3,0.8,0.9,0.9,1.7c0.1,2.1,1.4,3.9,3.4,4.7
		c0.7,0.3,1.2,0.9,1.4,1.4c0.7,1.8,2.5,3.1,4.6,3.4c0.7,0.1,1.4,0.4,1.8,0.9c1.3,1.5,3.4,2.2,5.4,1.7c0.7-0.2,1.4,0.1,1.9,0.3
		c1.7,1.1,4,1.1,5.8,0c0.5-0.4,1.2-0.5,1.8-0.3c0.6,0.2,1.1,0.2,1.8,0.2l0.4,1.1c-2.4,0.6-4.6,0.9-6.8,0.9C14.7,55.1,3,43.4,3,29
		C3,14.7,14.7,3,29,3C43.4,3,55.1,14.7,55.1,29c0,2.2-0.3,4.5-0.9,6.9l-17.9-6c0.2-0.8,0.1-1.7-0.2-2.7c-0.7-1.8-2.3-3.1-4.1-3.5
		c-1.7-0.2-3.3,0.2-4.4,1.2c-1.2,1-2,2.5-2,4.1c0,0.9,0.6,1.5,1.5,1.5c0.9,0,1.5-0.6,1.5-1.5c0-0.7,0.3-1.4,0.9-1.9
		c0.4-0.3,1.2-0.7,2.1-0.5c0.7,0.1,1.4,0.7,1.8,1.6c0.1,0.2,0.1,0.4,0.1,0.7l-0.2-0.1c-1.2-0.4-2.6-0.1-3.6,0.8
		c-0.9,0.9-1.2,2.2-0.8,3.7l5,15c0.3,0.8,1.2,1.2,1.9,0.9c0.8-0.3,1.2-1.2,0.9-1.9l-5-15l-0.1-0.1c-0.1-0.1,0-0.2,0.1-0.4
		c0.1-0.1,0.3-0.1,0.5-0.1l22.4,7.5l0.2,0c0.3,0,0.7,0,1-0.1c0.3-0.2,0.6-0.5,0.7-0.9c1-3,1.5-6.1,1.5-9.2c0-16-13-29-29-29
		S0,13,0,29c0,16,13,29,28.9,29c3.1,0,6.2-0.5,9.2-1.5c0.4-0.1,0.7-0.4,0.8-0.7c0.3-0.5,0.3-0.9,0.2-1.2L37.8,50.9z M47.2,25.1
		c0,1.4-1.1,2.5-2.5,2.5c-1.4,0-2.5-1.1-2.5-2.5c0-1.4,1.1-2.5,2.5-2.5C46.2,22.6,47.2,23.7,47.2,25.1z"/>
	<path d="M18.8,43.5L17,42.6c-0.4-0.2-0.8-0.3-1.2-0.1c-0.4,0.1-0.7,0.4-0.8,0.7c-0.2,0.4-0.3,0.8-0.1,1.2c0.1,0.4,0.4,0.7,0.7,0.8
		l1.9,1c0.2,0.2,0.5,0.2,0.7,0.2c0.6,0,1.1-0.3,1.2-0.9c0.2-0.3,0.2-0.8,0.1-1.1C19.4,43.9,19.2,43.6,18.8,43.5z"/>
	<path d="M25.1,49.2c1.9,0,3.4-1.5,3.4-3.4v-0.5H29c0.9,0,1.5-0.6,1.5-1.5v-1c0-2.9-2.7-4.4-5.4-4.4s-5.4,1.5-5.4,4.4v1
		c0,0.9,0.6,1.5,1.5,1.5h0.5v0.5C21.7,47.7,23.2,49.2,25.1,49.2z M25.6,43.8v2c0,0.3-0.2,0.5-0.5,0.5c-0.3,0-0.5-0.2-0.5-0.5v-2
		c0-0.9-0.6-1.5-1.5-1.5h-0.4c0.4-0.8,1.8-1,2.3-1s1.9,0.2,2.3,1h-0.4C26.2,42.3,25.6,42.9,25.6,43.8z"/>
	<path d="M26.3,37.6l1-1.9c0.2-0.4,0.3-0.8,0.1-1.2c-0.1-0.4-0.4-0.7-0.7-0.8c-0.4-0.2-0.8-0.3-1.2-0.1c-0.4,0.1-0.7,0.4-0.8,0.7
		l-1,2c-0.3,0.6,0,1.5,0.6,1.9c0.2,0.2,0.5,0.2,0.7,0.2C25.7,38.4,26.2,38.1,26.3,37.6z"/>
	<path d="M21.7,35.9c0-3-2.4-5.4-5.4-5.4s-5.4,2.4-5.4,5.4s2.4,5.4,5.4,5.4S21.7,39,21.7,35.9z M18.7,35.9c0,1.4-1.1,2.5-2.5,2.5
		c-1.4,0-2.5-1.1-2.5-2.5s1.1-2.5,2.5-2.5C17.6,33.5,18.7,34.5,18.7,35.9z"/>
	<path d="M17.2,17.7c0.2,0,0.5,0,0.8-0.3c0.5-0.4,0.8-1.2,0.5-1.9l-1-2c-0.3-0.6-1.2-0.9-1.9-0.6c-0.6,0.3-0.9,1.2-0.6,1.9l1,2
		C16.3,17.6,16.8,17.7,17.2,17.7z"/>
	<path d="M63,43.7l-3.7-1.3c-0.4-0.1-0.8-0.1-1.1,0c-0.4,0.2-0.6,0.5-0.8,0.8c-0.2,0.4-0.4,0.7-0.8,1.1c-1.2,1-1.8,2.4-1.9,3.8
		c-0.1,1-0.7,1.8-1.6,2.1c-1.3,0.5-2.4,1.6-2.9,2.9c-0.3,0.9-1.1,1.5-2.1,1.5c-0.3,0-0.6,0.1-1,0.2c0.9-1,1.5-2.3,1.5-3.7
		c0-3-2.4-5.4-5.4-5.4c-0.7,0-1.4,0.1-2.1,0.4l-2.4-7.5l15.6,5.2c0.7,0.3,1.6-0.1,1.9-0.9c0.3-0.7-0.1-1.6-0.9-1.9L36.8,35
		c-0.5-0.1-1.1,0-1.5,0.3c-0.5,0.5-0.6,1.1-0.3,1.5l7.5,22.4l1.3,3.7c0.2,0.6,0.7,1.1,1.4,1.1c0.1,0,0.3,0,0.5-0.2
		c8.7-2.9,15.5-9.8,18.3-18.4C64.1,44.8,63.7,43.9,63,43.7z M44.4,56.4L44.4,56.4C44.4,56.4,44.5,56.4,44.4,56.4
		C44.5,56.4,44.5,56.4,44.4,56.4z M43.7,53.5l-1.5-4.6c0.3-0.2,0.7-0.3,1.1-0.3c1.4,0,2.5,1.1,2.5,2.5
		C45.7,52.3,44.8,53.4,43.7,53.5z M60.6,46C58,52.7,52.7,58,46,60.6l-0.4-1.1c0.3-0.2,0.7-0.5,1-0.9c0.4-0.5,1.1-0.8,1.7-0.9
		c2.1-0.2,3.9-1.5,4.6-3.3c0.2-0.5,0.7-1.1,1.4-1.4c1.9-0.8,3.3-2.6,3.4-4.6c0.1-0.8,0.4-1.4,0.9-1.7c0.4-0.3,0.6-0.7,0.9-1L60.6,46
		z"/>
	<path d="M53.3,45.4c-0.3-0.1-0.7-0.2-1,0c-0.4,0.1-0.7,0.4-0.8,0.7l-1,1.9c-0.2,0.4-0.3,0.8-0.1,1.2c0.1,0.3,0.4,0.6,0.7,0.8
		c0.2,0.2,0.5,0.2,0.7,0.2c0.6,0,1.1-0.3,1.2-0.9l0.9-1.9c0.2-0.4,0.3-0.8,0.1-1.2C53.9,45.9,53.6,45.6,53.3,45.4z"/>
	<path d="M41.8,39.9c-0.4-0.1-0.7-0.1-1.1,0c-0.6,0.3-0.9,1.2-0.6,1.9l1,2c0.4,0.7,0.9,0.9,1.3,0.9c0.1,0,0.4,0,0.7-0.2
		c0.6-0.3,0.8-1.2,0.6-1.9l-1-2C42.4,40.3,42.1,40,41.8,39.9z"/>
	<path d="M10.9,26.7c-0.4,0.1-0.7,0.4-0.8,0.7l-1,1.9c-0.2,0.4-0.3,0.8-0.1,1.2c0.1,0.3,0.4,0.6,0.7,0.8c0.2,0.2,0.5,0.2,0.7,0.2
		c0.4,0,1-0.1,1.3-0.9l1-2c0.2-0.3,0.2-0.7,0.1-1c-0.1-0.4-0.4-0.6-0.6-0.8C11.7,26.6,11.3,26.6,10.9,26.7z"/>
	<path d="M49.3,43.5l-1.8-0.9c-0.3-0.2-0.7-0.3-1-0.2c-0.4,0.1-0.7,0.4-0.9,0.7c-0.2,0.4-0.3,0.8-0.1,1.2c0.1,0.4,0.4,0.7,0.7,0.8
		l1.9,1c0.2,0.2,0.5,0.2,0.7,0.2c0.6,0,1.1-0.3,1.2-0.9c0.2-0.3,0.2-0.8,0.1-1.1C49.9,43.9,49.7,43.6,49.3,43.5z"/>
	<path d="M38.2,24.5c-0.4-0.7-1.3-1-2-0.7c-0.6,0.3-0.9,1.2-0.6,1.9l1,2c0.3,0.6,0.7,0.9,1.3,0.9c0.2,0,0.4,0,0.7-0.2
		c0.6-0.3,0.9-1.2,0.6-1.9L38.2,24.5L38.2,24.5z"/>
	<path d="M32.7,9.1l-1.9-1c-0.3-0.2-0.7-0.3-1-0.2c-0.4,0.1-0.7,0.4-0.9,0.7c-0.2,0.4-0.3,0.8-0.1,1.2c0.1,0.4,0.4,0.7,0.7,0.8
		l1.9,1c0.2,0.2,0.5,0.2,0.7,0.2c0.6,0,1-0.3,1.3-0.9c0,0,0,0,0,0c0.2-0.3,0.2-0.7,0.1-1C33.2,9.6,33,9.3,32.7,9.1z"/>
	<path d="M40.4,19.2v-0.5h0.5c0.9,0,1.5-0.6,1.5-1.5v-1c0-2.9-2.7-4.4-5.4-4.4s-5.4,1.5-5.4,4.4v1c0,0.9,0.6,1.5,1.5,1.5h0.5v0.5
		c0,1.9,1.5,3.4,3.4,3.4S40.4,21.1,40.4,19.2z M34.9,15.8h-0.4c0.4-0.8,1.8-1,2.3-1s1.9,0.2,2.3,1h-0.4c-0.9,0-1.5,0.6-1.5,1.5v2
		c0,0.3-0.2,0.5-0.5,0.5s-0.5-0.2-0.5-0.5v-2C36.4,16.4,35.8,15.8,34.9,15.8z"/>
	<path d="M27.7,23.5L27.7,23.5c0.8-0.5,0.9-1.4,0.6-2c-0.3-0.6-1.2-0.9-1.9-0.6l-2,1c-0.6,0.3-0.9,1.2-0.6,1.9
		c0.4,0.7,0.9,0.9,1.3,0.9c0.2,0,0.4,0,0.7-0.2L27.7,23.5z"/>
	<path d="M22.9,28.8c-0.4-0.2-0.8-0.3-1.2-0.1c-0.4,0.1-0.7,0.4-0.8,0.7c-0.2,0.4-0.3,0.8-0.1,1.2c0.1,0.4,0.4,0.7,0.7,0.8l1.9,1
		c0.2,0.2,0.5,0.2,0.7,0.2c0.5,0,1-0.3,1.3-0.7c0.2-0.4,0.3-0.8,0.1-1.2c-0.1-0.4-0.4-0.7-0.7-0.8L22.9,28.8z"/>
	<path d="M19.7,15.3c0,3,2.4,5.4,5.4,5.4s5.4-2.4,5.4-5.4c0-3-2.4-5.4-5.4-5.4S19.7,12.2,19.7,15.3z M27.6,15.3
		c0,1.4-1.1,2.5-2.5,2.5c-1.4,0-2.5-1.1-2.5-2.5s1.1-2.5,2.5-2.5C26.5,12.8,27.6,13.9,27.6,15.3z"/>
</g>
</svg>
