<?xml version="1.0" encoding="utf-8"?>
<!-- Generator: Adobe Illustrator 24.0.2, SVG Export Plug-In . SVG Version: 6.00 Build 0)  -->
<svg version="1.1" id="Layer_1" xmlns="http://www.w3.org/2000/svg" xmlns:xlink="http://www.w3.org/1999/xlink" x="0px" y="0px"
	 viewBox="0 0 64 64" style="enable-background:new 0 0 64 64;" xml:space="preserve">
<g transform="translate(131.02975,-196.70833)">
	<path d="M-99,260.7 M-99,259.4"/>
</g>
<g>
	<path d="M13,55c1.1,0.8,2.4,1.5,3.5,2.4c1.5,1.2,0.9,2.9,1.4,4.6c0.2,0.8,1,1.3,1.7,1.4c3.4,0,23.1,0.6,24.7-0.6
		c0.9-0.6,1.2-1.6,1.2-2.6c0-2-0.5-3,1.6-4.1c2.6-1.4,4.9-2.6,7.2-4.6c2.4-2.1,4.6-4.6,6.1-7.4c1.6-3.2,2.3-6.7,3.4-10.1
		c0.4-1.3-0.7-2.6-2-2.6c-1.1,0-2.3,0-3.4,0c-0.1-3.1-0.9-6.3-3.4-8.6c-1.1-1.1-2.6-1.9-4.1-2.5c3-2.9,5.9-5.9,8.7-8.9
		c0.6-0.6,6.1-5.8,3.7-6.6c-0.9-0.3-1.9,0.9-2.5,1.4c-1.4,1.2-13.4,13.1-13.4,13.2c-0.7-0.1-1.4-0.1-2.1,0c-0.1,0-0.2,0-0.3,0
		c1.6-2.4,9.8-13.6,11-17.3c0.4-1.1-1.1-1.9-1.9-1.1c-2.7,2.7-4.7,6.6-6.9,9.7c-2.4,3.4-4.8,6.8-7.1,10.2c0,0.1-0.1,0.1-0.1,0.1
		c-0.6,0.4-1.3,0.8-1.9,1.3c-4.3-8.1-14.7-10.9-23-7.6c-4,1.6-7.2,4.5-9.3,8.3c-0.9,1.8-1.6,3.6-2.1,5.6c-0.1,0.7-0.4,1.7-0.4,2.6
		c-0.4,0-1.4,0.1-1.4,0.1C0.8,31.5,0,31.9,0,33c0.1,6.1,2.6,11.7,6.6,16.4C8.6,51.5,10.7,53.3,13,55z M37.2,28.4
		c0.6-1.1,1.3-2.2,2.2-3.1c1.7-1.8,4.1-2.9,6.6-2.9c2.4-0.1,5,0.9,6.7,2.5c1.8,1.7,2.4,4,2.4,6.4c-1.1,0-2.3,0-3.4,0
		c-0.1-1.1-0.9-2.4-1.6-3.1c-1.3-1.2-3.1-1.7-4.9-1.4c-2,0.4-4.4,2.4-4.5,4.4c-1.4,0-2.9,0-4.3,0C36.5,30.2,36.7,29.2,37.2,28.4z
		 M48.7,31.2c-1.9,0-3.8,0-5.6,0c0.6-1.1,2-1.9,3.1-1.9C47.7,29.2,48.3,30.1,48.7,31.2z M6.3,29.6c0.4-1.5,0.9-3,1.6-4.4
		c1.6-3.2,4.1-5.9,7.4-7.4c7.1-3.3,17.2-0.7,20.2,7.1c0.1,0.1,0.1,0.2,0.1,0.3C35,26,34.4,27,34.1,28c-1.2-4.8-6.5-8.4-11.5-8.4
		c-6,0.1-11.4,5.4-11.9,11.3c-0.8,0-1.6,0-2.4,0c-0.7,0-1.4,0-2.2,0C6.1,30.5,6.1,30,6.3,29.6z M21,26c-2.2,0.4-4.4,2.7-4.5,4.9
		c-1.3,0-2.6,0-3.9,0c0.6-1.7,1.1-3.5,2.3-5c1.4-1.9,3.5-3.4,5.9-3.9c4.9-0.9,11.5,3.6,10.6,8.9c-1.3,0-2.5,0-3.8,0
		c-0.3-1.6-0.7-3.1-2.1-4.1C24.2,26,22.5,25.7,21,26z M25,31c-2,0-4,0-6,0c0.3-1.2,0.9-2.3,2.5-2.6C23.5,28,24.7,29.3,25,31z
		 M59,35.3c-0.6,2.2-1.2,4.5-2.2,6.6c-1.3,2.7-3.2,5.6-5.1,7.8c-2,2.2-4.5,3.1-6.8,4.9c-0.4,0.3-0.7,0.6-1,0.9
		c-0.9-0.1-5.1,0.1-6.1,0.6c-0.5,0.3-0.4,1,0,1.2c0.9,0.5,4.4,0.6,5,0.6c0,0.9,0.1,2.1-0.4,2.4c-0.6,0.3-18.8-0.6-21.2-0.6
		c0-0.7,0-1.5-0.1-2.2c0.6,0.1,4.3,0.7,5.1,0.1c0.7-0.5,1-1.5,0.3-2.1c-0.8-0.7-5.8-0.6-6.9-0.6c-0.3-0.2-0.6-0.4-0.9-0.6
		c-2.4-1.6-4.8-3.2-6.9-5.2C7.4,45,4.7,39.9,4,34C9,34.5,56,35.3,59,35.3z"/>
	<path d="M46.4,49c3.5-1.6,5.9-5.7,7.1-9.1c0.4-1.2-1.4-1.9-2-0.9c-2.1,2.9-3.5,5.6-6.5,7.7C43.6,47.6,44.8,49.7,46.4,49z"/>
	<path d="M40.1,51c0.6,0.4,1.4,0.5,2.1,0.1c0.8-0.6,1.1-1.7,0.4-2.4c-0.5-0.5-1.3-0.6-1.9-0.4l0,0c-0.5,0.1-1,0.4-1.1,0.9
		C39.3,49.8,39.5,50.5,40.1,51z"/>
</g>
</svg>
