<?xml version="1.0" encoding="utf-8"?>
<!-- Generator: Adobe Illustrator 24.0.2, SVG Export Plug-In . SVG Version: 6.00 Build 0)  -->
<svg version="1.1" id="Layer_1" xmlns="http://www.w3.org/2000/svg" xmlns:xlink="http://www.w3.org/1999/xlink" x="0px" y="0px"
	 viewBox="0 0 64 64" style="enable-background:new 0 0 64 64;" xml:space="preserve">
<g>
	<g>
		<path d="M61.9,28.8c-0.3,0-0.5,0-0.8,0c-1.3-9.1-6-17.1-13.8-21.7c0-0.1,0.4-1.2,0.4-1.4c0.1-0.4,0.2-0.7-0.1-1
			c-0.2-0.3-0.6-0.4-1-0.4c-0.6,0.2-1,0.5-1.4,0.9c-0.1,0.1-0.4,0.4-0.5,0.6c-0.6-0.3-1.3-0.6-2-0.8c-6.1-2.2-12.9-2.1-19-0.1
			c-0.1-0.4-0.2-0.9-0.4-1.2c-0.4-0.9-1.7-0.5-1.9,0.3c-0.2,0.5-0.2,1.2-0.3,1.9c-4,1.7-7.6,4.2-10.4,7.5c0,0,0,0.1-0.1,0.1
			C9.8,13,9,12.7,8.2,12.3c-1.2-0.5-2.1,1-1,1.7c0.6,0.4,1.3,0.9,1.9,1.3c-1.7,2.2-3.3,5-4.2,7.7c-0.5,0.3-0.7,1-0.4,1.5
			C4.1,25.9,4,27.3,4,28.6c-0.6,0-1.3,0.1-1.9,0.1c-0.1,0-0.1,0-0.1,0c-1-0.1-2,0.5-1.9,1.8c0.5,6.2,2.7,11.9,6.9,16.6
			c1.8,2,3.9,3.7,6,5.3c1.1,0.8,2.4,1.4,3.5,2.4c0.8,0.7,0.9,1.2,1.1,2.2c0.1,0.9,0.1,1.6,0.3,2.4c0.2,0.8,0.9,1.3,1.7,1.3
			c3.2,0,6.4,0,9.6-0.1c2.7,0,5.3,0,7.9,0c1.9,0,5.1,0.6,6.8-0.4c0.9-0.5,1.4-1.4,1.4-2.4c0.1-1.9-0.6-3.1,1.4-4.2
			c2.6-1.5,5-2.6,7.4-4.5c2.4-2,5-4.5,6.4-7.4c1.7-3.2,2.4-6.8,3.5-10.3C64.2,30.1,63.2,28.8,61.9,28.8z M7.7,25.4
			c0.7,0.1,1.4,0.3,2.1,0.4c2.2,0.4,2.5-2.9,0.4-2.9c-0.5,0-1.1,0-1.6,0c0.1-0.4,0.4-0.8,0.5-1.2c0.8-1.6,1.7-3,2.7-4.5
			c0.1,0.1,0.3,0.1,0.4,0.1c1.1,0.3,1.9-0.9,1.4-1.8c-0.1-0.1-0.1-0.2-0.2-0.3c0.2-0.3,0.5-0.6,0.8-0.8c2.1-2.2,4.5-3.9,7.3-5.2
			c0.6,1,2.3,0.4,2.6-0.6c0.1-0.1,0.1-0.4,0.1-0.5c2.2-0.7,4.5-1.2,6.8-1.3c-0.4,0.4-0.5,0.8-0.6,1.4C30.1,8.8,30.1,9.4,30,10
			c-0.1,0.6,0.5,1.4,1.2,1.5c0.3,0.1,0.6,0.1,0.9,0c0.8-0.3,1.4-1.1,1.1-1.9c-0.2-0.8-0.2-2-0.8-2.6l0,0c6.4,0.1,13,2.5,17.5,7.1
			c0.1,0.1,0.1,0.1,0.2,0.2c-0.4,0.1-0.8,0.4-1.2,0.6c-0.5,0.4-0.9,0.8-1.4,1.2c-0.7,0.7,0.2,2,1.1,1.4c0.6-0.4,1.5-0.6,2.3-0.6
			c0.4,0,0.8-0.2,1-0.4c2.7,3.6,4.4,7.9,5,12.4c-16.3,0-32.5-0.2-48.8-0.3c-0.5,0-0.9,0-1.4,0C7.1,27.5,7.4,26.5,7.7,25.4z M56.7,40
			c-1.4,2.7-3.3,5.5-5.5,7.7c-2,1.9-4.6,2.8-6.8,4.5c-0.3,0.2-0.6,0.5-0.8,0.8c-0.9-0.1-5.1,0.1-6,0.6c-0.5,0.3-0.4,1,0,1.2
			c0.9,0.5,4.3,0.6,5,0.6c0,0.9,0.1,2-0.9,2.3C40.8,58,23.3,57.2,21,57.1c-0.1-0.8-0.1-1.5-0.3-2.2c0.6,0.1,4.5,0.7,5.3,0.1
			c0.6-0.4,0.9-1.5,0.3-2.2c-0.8-0.7-5.8-0.6-6.9-0.6c-0.1-0.1-5.3-3.6-7.5-5.6c-4.4-4.1-7.2-9.2-7.9-15.1C8.9,31.9,14,31.9,19,32
			c10.2,0.2,20.5,0.6,30.7,0.6c3.1,0,6.2,0.1,9.3,0.1C58.5,35.3,57.8,37.7,56.7,40z"/>
		<path d="M44.7,44.1c-1.4,1-0.2,3,1.4,2.3c3.5-1.6,5.8-5.7,7.1-9.1c0.4-1.2-1.4-1.9-2-0.9C49.1,39.5,47.8,42.1,44.7,44.1z"/>
		<path d="M40.4,45.7L40.4,45.7c-0.6,0.1-1,0.4-1.2,0.9c-0.2,0.7,0.1,1.4,0.6,1.9c0.6,0.4,1.4,0.5,2,0.1c0.8-0.6,1.2-1.7,0.4-2.4
			C41.8,45.6,41.1,45.5,40.4,45.7z"/>
		<path d="M40.6,16.2C40.6,16.2,40.7,16.2,40.6,16.2c0.9,0.5,1.8,0.2,2.3-0.5l0.1-0.1c0.4-0.5,0.3-1.2,0-1.7
			c-0.4-0.6-0.7-1.4-1.4-1.9c-0.5-0.4-1.2-0.1-1.4,0.4c-0.4,0.6-0.4,1.6-0.4,2.4C39.8,15.3,40.2,15.9,40.6,16.2z"/>
		<path d="M34.2,17.8c0.6,0.6,1.3,1.6,2.3,1.5c1-0.1,1.5-0.9,1.4-1.8c-0.1-0.9-1.2-1.4-1.8-1.9c-0.6-0.4-1.2-0.8-1.7-1.2
			c-0.9-0.7-2.2,0.6-1.6,1.6C33.3,16.6,33.7,17.2,34.2,17.8z"/>
		<path d="M42.2,20.3c-0.8,0.5-1.1,1.5-1.4,2.3c-0.4,1.1-0.6,2.3,0.3,3.2c0.6,0.6,1.7,0.6,2.4,0c0.5-0.5,0.7-1,0.6-1.7
			c0-0.4-0.1-0.6-0.1-0.9c-0.1-0.7,0.1-1.5-0.1-2.2C43.6,20.4,42.9,19.9,42.2,20.3z"/>
		<path d="M47.5,25.3c1.7-0.2,3.7-0.3,5.3-1c1.7-0.7,0.4-3.2-1.2-2.8c-1.6,0.4-3.2,1.4-4.5,2.2C46.5,24.1,46.7,25.4,47.5,25.3z"/>
		<path d="M24.2,19.6c1.8,0.6,2.2-1,2.1-1.6c-0.1-0.6-0.4-1.2-0.8-1.4c-0.4-0.2-0.8-1.1-1-1.6c-0.3-0.6-1.4-0.9-1.6,0
			c-0.1,0.5-0.1,1-0.1,1.6c0,0.5,0.1,1.1,0.1,1.4C23.1,18.9,23.5,19.4,24.2,19.6z"/>
		<path d="M27,25.4c1.1,0.6,2.7,0.1,3-1.2c0.2-1.1,0.7-2.1,0.8-3.2c0.1-0.9-1.2-1.7-1.9-1.1c-0.9,0.6-1.4,1.6-2.2,2.4
			C25.6,23.1,25.9,24.8,27,25.4z"/>
		<path d="M19.3,26c1-0.3,1.3-1.4,0.9-2.3c-0.4-1.1-1.2-2.2-1.4-3.4c-0.1-0.6-1.2-0.5-1.2,0.1c0.1,1.3-0.2,2.7-0.3,4
			C17.2,25.6,18.4,26.3,19.3,26z"/>
	</g>
</g>
</svg>
