<?xml version="1.0" encoding="utf-8"?>
<!-- Generator: Adobe Illustrator 24.0.2, SVG Export Plug-In . SVG Version: 6.00 Build 0)  -->
<svg version="1.1" id="Layer_1" xmlns="http://www.w3.org/2000/svg" xmlns:xlink="http://www.w3.org/1999/xlink" x="0px" y="0px"
	 viewBox="0 0 64 64" style="enable-background:new 0 0 64 64;" xml:space="preserve">
<g>
	<path d="M19.2,52c2-3-0.6-6.7-3-8.4c-0.2-0.1-2.5-1.9-4.4-0.8c-2.8,1.6-0.8,5.4,0.7,7.1C13.8,51.3,17.4,54.5,19.2,52z M12.9,44.9
		c0.2-0.4,0.9-0.5,1.4-0.1c0.9,0.3,2.1,2.1,2.6,2.9c0.6,0.8,0.6,1.6-0.1,2.1c-0.7,0.4-1.6-0.6-2.2-1.1C13.9,48,12.3,45.9,12.9,44.9z
		"/>
	<path d="M62.9,11c-1.4-2.5-3.7-3.3-6.2-3.8c-0.1-2.5-0.8-5.1-3.1-6.4c-2.2-1.4-5-0.9-6.5,1.3c-0.7,1.1-1.1,2.4-1.1,3.6
		c0,0.5,0.1,1.1,0.2,1.7C46.2,8,47,9.1,46.8,9.6c-0.2,1.1-3.1,2.7-4,3.5c-1.2,1-2.6,1.9-3.6,3.1c-2.7-1-5.4-1.3-8.6-0.9
		c-4.1,0.5-7.9,1.8-11.4,3.9c-3.6,2.1-7.1,4.4-10.4,6.9c-2.5,1.9-5.3,4.1-7,6.9c-3.4,4.7-0.1,11.8,2.5,16.1
		c3.1,5.2,7.7,9.5,13.1,12.3c3,1.5,8.9,3.8,11.7,1.6c1.8-0.9,3.4-2.3,4.8-3.6c2.1-1.9,4.1-3.9,5.9-5.9c4.6-5.3,9-12.6,9.9-19.7
		c0.5-3.7-0.1-7.4-1.7-10.5c1.3-1,2.2-2.3,3.3-3.5c1.4-1.6,2.1-2.6,4.3-1.6c2.3,1,4.6,1.4,6.6-0.6C63.9,15.9,64.1,13.1,62.9,11z
		 M37.3,24c2.9,3.4,6,6.7,8.6,10.4c-0.6,3.7-2.4,7.3-4.5,10.6c-1.1-3.6-2.9-7.4-6.4-8.7c-0.8-0.3-1.3,0.8-0.8,1.3
		c2.7,2.8,4,7.1,4.7,10.9c-0.5,0.6-0.9,1.3-1.4,1.9c-1.5,1.9-3.1,3.9-4.9,5.6c-0.6,0.6-1.2,1.3-1.9,1.9c-0.1-5.4-2.8-10.9-5.9-15
		c-1.9-2.6-4.3-5.2-7-7.1c-2.8-1.9-6-2.8-9.3-3.4c-3.1-0.5-3.7,3.9-0.6,4.2c6.2,0.7,10.2,4.1,14.1,8.7c2,2.4,3.6,5,4.6,7.9
		c0.6,1.8,1.8,5.5,0.6,6.9c-0.1,0-1,0.9-2.5,0.4c-5.8-1.6-11.1-4.9-15-9.5c-1.9-2.2-3.5-4.7-4.7-7.4c-1.6-3.4-1.7-6.4-1-9.9
		c3.4-3.6,7.7-6.4,11.9-8.9c1.7,0.2,3.4,0.5,5,1.3c1.3,0.6,2.4,1.6,3.6,2.4c0.6,0.4,1.1-0.3,0.9-0.9c-1.2-2.5-3.1-4.1-5.4-5.2
		c1-0.6,2.1-1.1,3.1-1.6l0.1,0.1c1.8,0.6,3.1,0.4,6.3,3.6c0.7,0.7,3.4,4.6,4.6,2.8c1.4-2.1-2.4-5.2-3.8-6.3c-0.7-0.6-1.6-1.4-2.6-2
		c3.1-0.9,6.2-1.1,9.3-0.1c2.9,0.9,5.9,2.6,7.4,5.3c0.9,1.6,1.4,3.4,1.6,5.2c-2.3-2.6-4.8-5-7.7-6.9C37.4,22.1,36.6,23.3,37.3,24z
		 M60.4,14.4c-0.7,2.9-3.9,0.4-5.5,0c-1.8-0.4-3.4,0.3-4.7,1.6c-1.4,1.3-3,3-4.1,4.7c-1.1-1.2-2.4-2.2-3.9-3.1
		c-0.3-0.1-0.5-0.3-0.8-0.4c1.5-0.9,2.9-2.1,4.2-3.1c1.4-1.1,3.9-2.2,4.1-4.2s-1.6-3.6-0.5-5.7c0.9-1.6,2.6-1,3.4,0.2
		c0.9,1.3,0.8,2.6,0.7,4.1c-0.1,0.6,0.5,1.4,1.1,1.5C56.8,10.3,61.2,11.1,60.4,14.4z"/>
	<path d="M27.2,36.3c-2.1-2.1-4.4-4.6-7.1-5.9c-0.7-0.4-1.8,0.4-1.2,1.2c1.6,2.3,3.9,4.1,5.7,6.3c1.9,2.2,3.5,5.1,5.7,7
		c0.9,0.9,2.9,0.1,2.4-1.4C31.5,40.8,29.1,38.3,27.2,36.3z"/>
</g>
</svg>
