<?xml version="1.0" encoding="utf-8"?>
<!-- Generator: Adobe Illustrator 24.0.2, SVG Export Plug-In . SVG Version: 6.00 Build 0)  -->
<svg version="1.1" id="Layer_1" xmlns="http://www.w3.org/2000/svg" xmlns:xlink="http://www.w3.org/1999/xlink" x="0px" y="0px"
	 viewBox="0 0 61.9 64" style="enable-background:new 0 0 61.9 64;" xml:space="preserve">
<title>aperitifs</title>
<g>
	<path d="M42.5,28l-4.8-6V10.9V8.1c0.6-0.2,1.1-0.7,1.1-1.4V4.6c0-2.5-2.1-4.6-4.6-4.6h-6.3c-2.5,0-4.6,2.1-4.6,4.6v2.1
		c0,0.7,0.4,1.2,1.1,1.4v2.8V22l-4.8,6c-2.3,2.9-3.6,6.6-3.6,10.3v5.3v6.3v8.4v2.1c0,2,1.6,3.6,3.6,3.6h23.2c2,0,3.6-1.6,3.6-3.6
		v-2.1v-8.4v-6.3v-5.3C46.1,34.6,44.8,30.9,42.5,28z M26.1,5.3V4.6c0-0.9,0.8-1.7,1.7-1.7h6.3c0.9,0,1.7,0.8,1.7,1.7v0.7H26.1z
		 M34.8,12.4v8.7h-7.6v-8.7H34.8z M34.8,9.5h-7.6V8.2h7.6V9.5z M26.4,24h9.1l4.7,5.9c1.9,2.4,3,5.4,3,8.5v3.8H18.7v-3.8
		c0-3.1,1.1-6.1,3-8.5L26.4,24z M18.7,56.9v-5.5h24.5v5.5H18.7z M18.7,48.5V45h24.5v3.4H18.7z M18.7,60.4v-0.7h24.5v0.7
		c0,0.4-0.3,0.7-0.7,0.7H19.4C19,61.1,18.7,60.8,18.7,60.4z"/>
	<path d="M31,39.8c3.1,0,5.7-3,5.7-6.7s-2.5-6.7-5.7-6.7s-5.7,3-5.7,6.7S27.8,39.8,31,39.8z M28.2,33.1c0-2.1,1.2-3.8,2.8-3.8
		s2.8,1.7,2.8,3.8s-1.2,3.8-2.8,3.8S28.2,35.2,28.2,33.1z"/>
</g>
</svg>
