<?xml version="1.0" encoding="utf-8"?>
<!-- Generator: Adobe Illustrator 24.0.2, SVG Export Plug-In . SVG Version: 6.00 Build 0)  -->
<svg version="1.1" id="Layer_1" xmlns="http://www.w3.org/2000/svg" xmlns:xlink="http://www.w3.org/1999/xlink" x="0px" y="0px"
	 viewBox="0 0 64 64" style="enable-background:new 0 0 64 64;" xml:space="preserve">
<g>
	<path d="M0.7,28.4c-0.1,0.1-0.7,1.1-0.6,1.7C1,38.3,2.2,47.8,9.7,52.8c0.9,0.6,1.8,1.1,2.7,1.6c-0.1,1.9-0.1,4.5,1,5.5
		c0.9,0.9,2.7,1.4,4,1.9c3.9,1.3,8,1.9,12.1,2.1c5,0.3,10.1,0,14.9-1.2c1.7-0.4,4.9-1,6.2-2.4c0.6-0.6,0.5-1.7,0.6-2.5
		c0.1-1.1,0.2-2.1,0.3-3.2c3-1.4,5.7-3.4,7.8-6.2c1.9-2.4,2.6-5,3.2-8c0.7-3.3,1.3-6.6,1.4-10c0.1-0.9-0.9-1.6-1.7-1.4
		c-0.4,0.1-0.7,0.2-1.1,0.4c0-0.1,2.3-4,1.3-5.6c-0.7-1.1-1.7-1.2-2.7-1.1c0.2-1.7-0.3-3.4-2.2-3.8c-1.5-0.3-3.6,0.4-5.2,1.4
		c1.5-2.7,2.4-5.9,1.7-8.9c-0.6-2.7-2.9-4.5-5.4-4.5C48.7,4,47.6,1.1,44,1.5c-2.7,0.3-4.8,2.2-5.9,4.5c-2.2-0.9-4.8-0.4-6.5,1.5
		c-1.7,1.8-2.5,4.7-2.4,7.5c-0.4-0.3-0.9-0.6-1.4-0.8c0.4-3.1-0.4-6.4-3.3-8c-1.9-1.1-4.2-1-5.9,0C16.7,2.5,13-1.6,8.9,0.6
		C4.6,2.9,5.3,7.5,7,11.3c-2.7,0.4-4.9,2.5-5,5.5c-0.1,3.4,2.2,5.9,5.1,7C4.4,24.6,2.2,25.9,0.7,28.4z M61.1,32.5
		c-0.2,2.2-0.6,4.4-1.1,6.5c-0.6,2.7-1.1,5.5-2.9,7.7c-3.9,4.8-9.3,6.9-15.1,8.4c-1.1,0.3-1,2.4,0.3,2.2c2.3-0.3,4.6-0.8,6.7-1.6
		c-0.2,1.1-0.4,2.4-0.9,2.7c-1.2,1.1-4.2,1.4-5.7,1.8c-4,0.9-8.2,1.1-12.4,0.9c-3.5-0.1-7.1-0.4-10.6-1.2c-1.1-0.3-2.4-0.6-3.4-1.1
		c-1.1-0.6-1.4-2-1.7-3.4c6.3,2.6,13.7,3.4,20,2.2c1.1-0.2,0.8-1.9-0.3-1.9c-7.5,0.5-16-0.6-22.5-4.8C6,47.1,4.5,40,3.7,33.4
		c1.4,0.8,2.9,1.4,4.3,2c7.2,2.9,15.1,3.7,22.8,3.4c0.1,0,0.1,0,0.1,0c0.4,0.4,0.8,0.7,1.4,0.9c2.4,1.1,6.8-0.1,6.8,3.6
		c0,1.3,1.4,1.7,2.3,0.9c1.4-1.1,2.5-2.6,3-4.2c0.4,0.4,0.7,0.7,1.1,1c1.9,1.3,4.5,1,6.3-0.4c1.3-1.1,2.7-3.4,1.8-5
		c1.2-0.4,2.4-1.1,3.4-1.8C57.2,33.9,59.8,32.9,61.1,32.5z M46.9,32.6c-2.7,1.3-5.5-0.4-6.2-3.2c-0.6-2.8,1.5-5,4-5.5
		c1-0.2,1.9-0.1,2.9,0.1c0.6,0.2,1.1,0.7,1.2,0.9C50.8,27.4,49.8,31.2,46.9,32.6z M50.9,37.1L50.9,37.1c-0.1,0.6-0.4,1.1-0.8,1.4
		c-0.9,0.8-2.2,1-3.2,0.3c-0.8-0.5-1.1-1.3-1.3-2.1c1.4-0.1,2.7,0,4,0.1C50,37,50.4,37,50.9,37.1z M41,40.7
		c-0.4-0.6-0.9-1.3-1.5-1.7c-0.8-0.6-1.7-0.9-2.7-1c-1.2-0.1-3.7,0.1-4.5-1.1c0-0.2-0.2-0.6-0.2-0.6c0.2,0,6.6-0.8,8.3,0.1
		C42.5,37.3,42.1,39.2,41,40.7z M52.3,24.7c0.2-0.3,0.4-0.5,0.7-0.6c0.6-0.4,1.4-0.9,2.2-1.1c0.1-0.1,1.4-0.4,1.6-0.6
		c0.1,0.6-0.5,1.7-0.6,1.9c-0.8,1.2,0.5,2.4,1.7,2.2c0.1,0,2.2-0.6,2.2-0.6c0.4,0.3-0.4,1.7-0.5,1.8c-0.6,1.1-1.3,2.1-2.2,2.9
		c-1.7,1.6-3.9,2.4-6.1,2.6C52.9,30.7,53.5,27.4,52.3,24.7z M32.6,12.3c0.4-1.7,3.1-5.5,4.9-2.7c0.9,1.4,2.7,0.7,2.9-0.8
		c0.1-1.6,1.1-3,2.5-3.7c0.9-0.5,2.2-0.9,2.7,0.4c0.4,0.9-0.1,2.1-0.2,2.9c-0.3,1.3,1,2.3,2.2,1.7c2.8-1.4,3.7,2.7,3.5,4.5
		c-0.3,2.3-1.4,4.5-2.8,6.3c-1.7-0.6-3.6-0.4-5.2,0.1c-1.8,0.6-3.2,1.7-4.2,3.1c0-0.2,0.6-1.8,0.7-2c1.1-1.4,2.4-2.7,4-3.7
		c1.2-0.8,2.7-1.4,3.3-2.7c0.1-0.4-0.1-0.7-0.5-0.9c-1.7-0.6-3.7,0.9-5,1.7c-0.4,0.2-0.6,0.5-0.9,0.7c0.2-0.6,0.5-1.1,0.8-1.6
		c0.8-1.4,2.2-2.5,2.7-4c0.1-0.5-0.4-0.9-0.8-0.8c-2.2,0.6-3.7,3.2-4.7,5.7c-0.1-1.6-0.4-3.1-0.8-4.5c-0.4-1.2-2.2-1-2.2,0.3
		c-0.2,3.5,1,11.4,1.1,11.5c-0.1,0.6-0.1,1.1-0.2,1.7c-0.1-0.1-0.1-0.1-0.3-0.2c-0.3-0.4-0.7-0.9-1.4-1.2c-0.7-0.4-1.5-0.6-2.3-0.6
		c0.3-1.6,0.1-3.2-0.5-4.6C32.3,16.8,32,14.5,32.6,12.3z M32,26.6c0.3,0,0.5,0,0.8,0.1c0.7,0.1,1.1,0.6,1.1,0.7
		c1.4,1.9,0.6,4.9-1.8,5.7c-2.1,0.6-4-1.2-4-3.3C28.4,27.8,30.3,26.7,32,26.6z M6.3,27.2c0.5-0.3,1-0.4,1.6-0.6
		c0,1.8,0.5,2.9,1.8,4.3c2.1,2.2,5.5,2.7,7.8,0.8c1-0.8-0.1-2.6-1.2-2.1c-4.5,1.7-6.5-2.4-4.7-6c0.5-1-0.1-2.2-1.3-2.3
		c-2.2,0-4.5-0.9-5.2-3C4.2,16,6,13,8.6,14.2c1.2,0.6,2.7-0.6,1.9-1.9c-1.4-2.4-3.7-6.4-1-8.8c3.1-2.7,6.3,3.5,6.8,5.7
		c0.3,1.2,2,1.4,2.7,0.4c0.9-1.5,3.1-1.4,4.3-0.4c1.6,1.4,1.5,3.9,1.1,5.7c-0.2,0.8,0.2,1.7,1.1,1.9c3.1,0.7,4.7,4,3.7,7
		C29,23.9,29,24,29,24.2c-2.1,1-3.5,2.9-3.7,5.1c-0.1-0.1-2.2-2.5-2.7-3.6c-1.6-3.6-0.4-7-0.8-10.6c-0.1-0.8-1.1-1.2-1.6-0.4
		c-0.8,1.4-1.2,3-1.4,4.7c-0.9-1.7-1.7-3.5-2.1-5.2c-0.3-1.1-2-0.9-1.9,0.3c0.2,3.9,2.7,8,4.5,11.4c-1.7-0.6-3-0.9-4.7-0.2
		c-0.7,0.3-0.8,1.6,0.2,1.6c1.7-0.1,3.5,1.1,5,1.9c0.8,0.4,1.6,0.9,2.4,1.4c1.3,1.9,2.8,3.5,4.5,5.1c-5.9-0.1-11.7-1.1-17.2-3.2
		c-1.7-0.6-3.4-1.4-5-2.4c-0.3-0.1-0.6-0.4-0.9-0.6C4.4,28.6,5.2,27.8,6.3,27.2z"/>
	<path d="M38.5,55.1c-0.4,0-0.9,0.1-1.1,0.5c-0.4,0.4-0.4,0.6-0.5,1.1c-0.1,0.5,0.4,1.2,1,1.3c0.3,0.1,0.5,0.1,0.8,0
		c0.1-0.1,0.3-0.1,0.4-0.2c0.4-0.2,0.6-0.6,0.8-1C40.1,55.9,39.4,55,38.5,55.1z"/>
	<path d="M46.8,26c-0.4,0-0.9,0.1-1.1,0.5c-0.4,0.4-0.4,0.6-0.5,1.1c-0.1,0.5,0.4,1.2,1,1.3c0.3,0.1,0.5,0.1,0.8,0
		c0.1-0.1,0.3-0.1,0.4-0.2c0.4-0.2,0.6-0.6,0.8-1C48.3,26.8,47.6,26,46.8,26z"/>
</g>
</svg>
