<?xml version="1.0" encoding="utf-8"?>
<!-- Generator: Adobe Illustrator 24.0.2, SVG Export Plug-In . SVG Version: 6.00 Build 0)  -->
<svg version="1.1" id="Layer_1" xmlns="http://www.w3.org/2000/svg" xmlns:xlink="http://www.w3.org/1999/xlink" x="0px" y="0px"
	 viewBox="0 0 64 64" style="enable-background:new 0 0 64 64;" xml:space="preserve">
<g>
	<path d="M9.3,14.6c-1.6,2-3.6,4.2-4.4,6.7c-0.6,0.6-0.4,1.9,0.6,2.1c2.8,0.5,5.8,0.4,8.6,0.4c4.4,0,8.8,0.1,13.2,0.1
		c8.7,0.1,30.4,0,30.6-0.1c1.6-0.2,3.2-1.3,2.2-2.9c-3.1-5-7.2-9.6-12.3-12.6c-4.9-2.8-10.6-4-16.2-3.9c-5.8,0.1-11.5,1.4-16.3,4.8
		C13.1,10.6,11.1,12.5,9.3,14.6z M16.9,11.9c0.4-0.3,0.8-0.5,1.1-0.7c-0.6,2-0.9,4.2-0.7,6c0.1,0.6,0.8,0.8,1.1,0.3
		c1.5-2.6,2.3-5.5,3.7-8.2c3-1,6.2-1.3,9.4-1.2c0.1,0,0.1,0,0.2,0c-1.1,2.7-1.8,6.1-1.7,8.8c0,0.8,1.2,1.2,1.6,0.4
		c0.8-1.5,1.3-3.1,1.9-4.7c0.5-1.4,1.2-2.9,1.8-4.3c3.2,0.4,6.4,1.2,9.3,2.6c-0.3,0.7-0.5,1.5-0.7,2.2c-0.4,1.4-1.1,2.8-1.1,4.2
		c0,0.7,0.9,1,1.3,0.6c1.1-1,1.6-2.5,2.1-3.8c0.3-0.6,0.5-1.2,0.8-1.8c3.3,2.1,5.9,5,8.2,8.2c-0.3,0-0.5,0-0.8,0
		c-3.7-0.1-7.2-0.2-10.9-0.2c-9.3,0-18.5,0-27.8,0c-2.3,0-4.7-0.1-7,0.1c0.9-1.2,1.7-2.4,2.6-3.6C13,15.1,14.8,13.3,16.9,11.9z"/>
	<path d="M57.9,25.9c-2.5-0.2-5-0.2-7.5-0.2c-8.7-0.1-17.5,0.1-26.2,0.1c-4.4,0-8.9-0.1-13.3-0.3c-2.1-0.1-4.4-0.2-6.7,0
		c-0.3,0-0.5,0.1-0.7,0.2c-3.4,0.6-5,7.2-1.5,9.6c2.4,1.7,5.9,1.3,8.6,1.3c3.6,0,7.2,0,10.8,0c8-0.1,16.1-0.2,24.1-0.3
		c4,0,7.9,0,12,0c2.7-0.1,5.4-0.8,6.3-3.7C65,28.6,61.3,26.2,57.9,25.9z M58.7,33c-3,0.4-16.3,0.1-19.8,0.2
		c-7.4,0.1-28.8,0.3-32,0.2c-1.5-0.1-3.5-0.1-3.9-1.9c-0.2-1.1,0.1-1.9,0.8-2.5C4,29,4,29,4.2,29c4.2-0.5,8.4-0.4,12.6-0.5
		c7.6-0.2,15.1,0.1,22.6,0.3c5.8,0.1,11.7,0.3,17.5,0.4C60.9,29.2,60.4,32.8,58.7,33z"/>
	<path d="M5.9,41.7c17.4,0.5,34.7,0.2,52.1,0.7c2.3,0.1,2.3-3.5,0-3.5c-8.7-0.1-17.3-0.1-26,0c-8.7,0.1-17.5,0-26.1,0.5
		C4.4,39.4,4.4,41.6,5.9,41.7z"/>
	<path d="M4.6,46.8C4.2,50.9,3.7,56.9,8,58.7c2.5,1,5.7,0.6,8.4,0.7c3.6,0.1,7.2,0.1,10.7,0.2c6.9,0.1,13.8,0,20.8,0
		c4.8-0.1,10.1,0,11.2-5.8c0.7-3.6,1.6-9.7-3.6-10c-2.9-0.2-8.2-0.5-7.7,3.8c0.1,1.2,0.6,1.9-0.1,3.1c-0.7,1-1.9,1.1-2.9,0.6
		c-1.9-0.9-1.2-2.4-1.6-4c-0.2-1.1-0.9-2.2-1.8-2.9c-1.7-1.4-4.2-1.4-6-0.4c-0.9,0.5-1.6,1.2-2.1,2.1c-0.2,0.4-0.4,0.9-0.5,1.4
		c-0.1,0.9,0.4,2.1-0.1,2.9c-0.5,0.6-2.2,0.5-2.6-0.1c-0.4-0.7,0-1.6,0-2.4c0-1.1-0.4-2.2-1.2-3c-1.7-1.6-4.4-1.1-6.6-1.1
		c-5.4,0.1-10.7-0.1-16.1-0.1C4.4,43.7,3.9,45.8,4.6,46.8z M19,47.4c1.7,0,3.4-0.1,5.2-0.1c0.8,0,1.9-0.2,2.3,0.6
		c0.4,0.8-0.4,2.3-0.1,3.3c1.4,4,7.9,4.4,9.7,0.4c0.8-1.6-0.6-5.2,2.4-4.9c2.1,0.1,1.4,4.4,2.6,5.9c2.4,2.9,7.4,2.7,9.4-0.4
		c0.8-1.2,1.6-3.2,0.8-4.7c0-0.1,0-0.1,0-0.2c0.2,0,0.6-0.1,0.8-0.1C53,47,54,46.9,54.9,47c2.6,0.1,2.4,2.7,2.1,4.7
		c-0.4,2.9-1.6,4.4-4.7,4.4c-5.7-0.1-11.2-0.3-16.9-0.3c-6.7-0.1-13.3,0-19.9,0.1c-1.6,0-3.4,0.1-5,0c-1.8-0.1-2.3-0.8-2.7-2.4
		c-0.5-2-0.4-3.9-0.6-5.9C11.2,47.3,15.1,47.4,19,47.4z"/>
</g>
</svg>
