<?xml version="1.0" encoding="utf-8"?>
<!-- Generator: Adobe Illustrator 24.0.2, SVG Export Plug-In . SVG Version: 6.00 Build 0)  -->
<svg version="1.1" id="Layer_1" xmlns="http://www.w3.org/2000/svg" xmlns:xlink="http://www.w3.org/1999/xlink" x="0px" y="0px"
	 viewBox="0 0 64 64" style="enable-background:new 0 0 64 64;" xml:space="preserve">
<g>
	<path d="M38,56.3c3.7-3,4.4-8.9,1.8-12.8c-0.6-0.9-1.6-0.9-2.4-0.5c0.1-0.3,0.2-0.7,0-1.1c-2.6-4.1-9.4-2.7-12.4,0.3
		c-3.5,3.5-3.6,9.4-0.3,13.1C28.1,59.1,34.1,59.4,38,56.3z M27.5,44.7c2.5-2.4,5.6-1.8,8.7-1.1c0.3,0.1,0.5,0,0.7-0.1
		c-0.4,0.4-0.4,1.1,0,1.6c1.8,2.4,1.9,6.2-0.6,8.3c-2.5,2.2-6.7,2.1-9-0.4C25.2,50.8,25.2,46.9,27.5,44.7z"/>
	<path d="M14,62.6c0.1,0.8,1,1.3,1.7,1.3c8.2,0.1,16.5,0.1,24.7,0c2.6,0,6.7,0.9,8.1-2.1C49.8,59,57.4,27.2,58,24
		c0.7-3.6-2.2-3.6-5.1-4c-0.5-0.1-1,0-1.4,0.1c0.7-1.9,1.5-3.7,2.5-5.5c0.4-0.9,0-1.6-0.8-2c-1.4-0.5-4.1-1.9-5.5-1
		c-0.8,0.6-1.1,1.7-1.6,2.5c-0.7,1.4-1.4,2.6-2.1,4c-0.1,0.3-0.3,0.6-0.4,0.9c0.4-1.8,0.9-3.6,1.3-5.4c0.1-0.6-0.1-1.4-0.7-1.7
		c-1.5-0.6-2.9-0.9-4.4-0.9c0.3-2.9,0.5-5.9,0.8-8.9c0.1-0.6-0.6-1.3-1.1-1.4c-2.1-0.6-4.4-0.7-6.6-0.8c-0.9,0-1.5,0.7-1.6,1.6
		c0,1.3-0.1,2.6-0.1,3.9c-1.7-0.4-3.4-0.6-5.2-0.6c-0.5,0-1.1,0.4-1.3,0.9c-0.4-1.6-0.8-3.1-1.1-4.6c-0.2-0.7-0.9-1.1-1.6-0.9
		c-2,0.4-3.9,1-5.8,1.9c-0.5,0.2-0.7,1-0.6,1.5c0.5,2,1,4,1.5,6c-2.1,0.4-4.2,0.6-6.4,1c-0.8,0.1-1.4,1.2-1.1,1.9
		c1.1,2.8,2.2,5.6,3.2,8.4c-0.2,0-0.4,0-0.6,0c-1.5-0.1-3-0.2-4.5-0.1c-1.1,0.1-1.9,1.1-1.7,2.2C8.8,36.1,11.4,49.3,14,62.6z
		 M44.6,22.8c0.9-2.1,4.4-8.9,4.6-8.8c0.5,0.1,1.2,0.4,1.9,0.7c-1.9,4-4.5,12.5-4.5,12.7c-1.6,1.8-3.6,3.2-5.9,4.2
		C42.4,28.9,43.3,25.7,44.6,22.8z M40.3,14c0.4,0.1,0.9,0.1,1.3,0.3c-1.5,6.2-3.1,12.3-4.4,18.5c-0.9,0.3-1.9,0.4-2.9,0.6
		C36.8,27.1,38.5,20.5,40.3,14z M32.4,26.5c0.4-2.7,0.6-5.5,0.9-8.2c0.4-5,0.9-10.1,1.1-15.1c1,0.1,2,0.1,3,0.4
		c-0.2,3.2-1.2,14.7-1.2,14.9c-1.5,5-3.1,10-4,15.1c-0.3,0-0.6,0-0.9,0C31.9,31.3,32.1,28.8,32.4,26.5z M27.6,7.7
		c1.2,0.1,2.5,0.3,3.6,0.6c-0.1,3.1-0.2,6.4-0.5,9.5c-0.2,2.6-1.4,13.1-1.4,15.7c-0.9-0.1-1.6-0.2-2.5-0.4
		C27.5,30.2,27.8,12.7,27.6,7.7z M21.4,3c1.4,5.6,3,11.1,3.5,16.9c-0.1,1.4-0.7,9.7-0.6,12.5c-0.1-0.1-0.4-0.1-0.5-0.1
		c0-1-1.4-9-2-11.9C20.7,14.9,19.7,9.4,18.4,4C19.4,3.6,20.4,3.3,21.4,3z M17.7,12.5c0.6,2.8,1.1,5.6,1.8,8.3
		c0.6,2.9,1.2,5.8,1.9,8.7c0.1,0.6,0.3,1.2,0.4,1.9c-1.4-0.7-2.6-1.6-3.7-2.6c-0.4-1.9-1.1-3.9-1.6-5.6c-1-3.3-2-6.7-3.2-9.9
		C14.7,13,16.2,12.8,17.7,12.5z M10.7,23.8c5.5,18.5,35.9,16.8,43.1,0.4c0.2,0,0.4,0.1,0.6,0.1c-0.2,0.6-8.2,36-8.9,36.5
		c-0.4,0.2-22-0.4-28.3-0.4C14.8,48.1,12.3,36,9.7,24C10.1,23.9,10.4,23.9,10.7,23.8z"/>
</g>
</svg>
