<?xml version="1.0" encoding="utf-8"?>
<!-- Generator: Adobe Illustrator 24.0.2, SVG Export Plug-In . SVG Version: 6.00 Build 0)  -->
<svg version="1.1" id="Layer_1" xmlns="http://www.w3.org/2000/svg" xmlns:xlink="http://www.w3.org/1999/xlink" x="0px" y="0px"
	 viewBox="0 0 64 64" style="enable-background:new 0 0 64 64;" xml:space="preserve">
<g>
	<path d="M13,62.8c2.4,0.9,4.7,1.4,6.7,0.9c1.9-0.4,3.4-1.7,4.2-2.8c0.5-0.6,24.3-30.5,26.5-32.8c1.4-1.5,2.5-2.9,2.4-4.8
		c3.5-3.8,7-7.7,10.8-11.1c0.6-0.5,0.6-1.6,0-2.2c-0.9-0.7-2.8-2.2-2.9-2.4c0.6-0.5,1.1-1,1.6-1.6c0.9-0.8,0.6-2.2-0.4-2.7
		c-1.4-0.9-3.6-2.9-5.4-3c-1.4-0.1-2.8,1.4-3.8,2.6c-0.1-0.2-2.4-1.6-3.3-2.5c-0.7-0.8-1.8-0.4-2.3,0.3c-0.8,1-1.5,1.9-2.3,2.9
		C44.1,3,43.1,2.6,42.2,2c-0.9-0.5-1.6-0.9-2.7-0.6c-2.1,0.6-3.8,3.4-5,5c-1.3,1.7,1.6,3.4,2.9,1.6c0.5-0.8,3-3.5,3-3.5
		c0.9,0.3,1.8,0.8,2.8,1.1c-1.3,1.6-2.5,3.2-3.8,4.7c-0.9-0.2-1.7-0.4-2.7-0.5c-2.7-0.3-2.6,3.8,0,4.2c4,0.4,7.8,3.1,10.2,6.3
		c0.5,0.6,1,1.4,1.3,2.2c0.6,1.4,0.1,1.7-0.8,2.7c-0.1,0.1-26.7,33.3-27,33.6c-0.9-2.4-2.2-4.4-3.9-6.3c-2.4-2.4-5.7-5.2-9.3-4.5
		c-1.1,0.2-1,1.9,0,2.2c4.5,1.1,8.8,5.3,10.3,9.9c-2.1,1.1-14.9-7.9-13.3-11.6c0.1-0.2,10-12.6,14.8-18.7s10-12,14.2-18.6
		c0.9-1.4-1.1-3-2.4-1.8c-5.4,5.4-9.9,11.9-14.6,17.9c-4.9,6.2-9.8,12.3-14.7,18.4c-2.6,3.2-1.4,6,1,9C5.2,58.2,8.8,61.2,13,62.8z
		 M44.5,12.5c-1.1-0.7-2.3-1.3-3.5-1.7c2.7-2.2,5.1-4.7,7.5-7.2c0.6,0.6,1.4,1.1,2.3,1.4C48.5,7.5,46.4,10,44.5,12.5z M46.8,14.3
		c1.4-1.9,2.9-3.7,4.4-5.3c1.5-1.6,3.2-3.8,5.2-5.1c0.6,0.3,1.2,0.7,1.9,1.1c-3.1,2.9-6.5,6.1-7.9,9.9c-0.3,0.8,0.7,1.4,1.4,1
		c1.9-1.2,3.4-3.1,5.1-4.7c0.4-0.4,0.8-0.7,1.1-1.1c0.6,0.4,1.3,0.8,1.9,1.2c-2.9,2.9-5.8,6-8,9.4c-0.7-1.6-1.9-3.1-3-4.4
		C48.3,15.6,47.6,14.9,46.8,14.3z"/>
	<path d="M29.6,24.6c-2.5,0.4-4.7,1.9-6.5,3.7c-2.9,2.7-7.2,8.5-2.8,11.9c4,3.2,10.2-0.4,13.2-3.4c2.8-2.8,4.4-7.5,1.6-10.7
		C33.9,24.2,31.5,24.3,29.6,24.6z M22,37.3c-1.7-2.3,3.2-6.5,4.7-8c2.9-2.7,5.3-1.7,5.4-1.7C37.5,32.1,24.9,41.2,22,37.3z"/>
</g>
</svg>
