<?xml version="1.0" encoding="utf-8"?>
<!-- Generator: Adobe Illustrator 24.0.2, SVG Export Plug-In . SVG Version: 6.00 Build 0)  -->
<svg version="1.1" id="Layer_1" xmlns="http://www.w3.org/2000/svg" xmlns:xlink="http://www.w3.org/1999/xlink" x="0px" y="0px"
	 viewBox="0 0 64 64" style="enable-background:new 0 0 64 64;" xml:space="preserve">
<g transform="translate(131.02975,-196.70833)">
	<path d="M-99,260.7 M-99,259.4"/>
</g>
<g>
	<path d="M61.9,28.1c-17.9,0-35.7-0.2-53.6-0.3c-2.1,0-4.1,0.1-6.2,0.1c-0.1,0-0.1,0-0.1,0c-1-0.1-2,0.5-1.9,1.9
		c0.5,6.1,2.6,11.7,6.7,16.4c1.9,2.1,4,4,6.3,5.6c1.1,0.8,2.4,1.5,3.5,2.3c1.5,1.2,0.9,2.9,1.4,4.7c0.2,0.8,1,1.4,1.8,1.4
		c3.3,0,6.5,0,9.8-0.1c2.6,0,5.3,0,8,0c1.9,0,5.2,0.6,6.8-0.6c0.9-0.7,1.1-1.7,1.1-2.8c0-0.7-0.4-1.5-0.1-2.3c0.3-0.9,1.2-1.4,2-1.8
		c2.7-1.4,5.1-2.7,7.4-4.7c2.4-2.1,4.8-4.6,6.2-7.5c1.5-3.1,2.2-6.5,3.2-9.8C64.3,29.4,63.2,28,61.9,28.1z M57,38.8
		c-1.4,2.8-3.3,5.6-5.4,7.8c-2.1,2.1-4.7,3.1-7,4.8c-0.4,0.3-0.7,0.6-1.1,0.9c-0.9-0.1-4.8,0.1-5.6,0.6c-0.5,0.3-0.4,0.9,0,1.2
		c0.8,0.5,4.1,0.7,4.6,0.7c0,0.7,0,1.5-0.4,1.9c-0.9,1-18.5-0.2-20.9-0.2c0-0.7,0-1.5-0.1-2.2c0.6,0.1,4.3,0.7,5.1,0.1
		c0.7-0.5,1-1.5,0.3-2.1c-0.8-0.7-5.8-0.6-7-0.6c-0.3-0.2-0.6-0.4-0.9-0.6c-2.3-1.6-4.8-3.2-7-5.2c-4.3-4.1-7-9.2-7.8-15
		C8.9,31.4,14,31.4,19,31.5c10.2,0.2,20.4,0.6,30.6,0.6c3.1,0,6.2,0.1,9.3,0.1C58.6,34.4,58,36.7,57,38.8z"/>
	<path d="M45.1,43.6c-1.4,1-0.2,3,1.4,2.3c3.5-1.6,5.8-5.8,7.1-9.2c0.4-1.2-1.4-1.9-2.1-0.9C49.6,38.8,48.1,41.5,45.1,43.6z"/>
	<path d="M40.7,45.1L40.7,45.1c-0.6,0.1-1.1,0.4-1.2,0.9c-0.2,0.7,0.1,1.4,0.6,1.9c0.6,0.4,1.4,0.5,2.1,0.1c0.8-0.6,1.1-1.7,0.4-2.4
		C42.1,45,41.4,44.9,40.7,45.1z"/>
	<path d="M19.4,21.3c-1.7,0.8-0.5,3.8,1.3,3.1c3.2-1.4,5.2-4.7,4.3-8.2c-0.4-1.7-1.5-2.9-2.7-4.1c-2.3-2.3-1.6-4.8,0.9-6.6
		c0.4-0.3,0.4-0.7,0.1-1.1c-1-1.2-2.6-0.7-3.6,0.3c-1.5,1.4-2.2,3.8-1.9,5.7c0.3,1.9,1.5,3.1,2.7,4.3C23,17.1,22.4,20,19.4,21.3z"/>
	<path d="M31.1,24.9c2.8-1.9,4.6-5.6,3.7-8.8c-0.4-1.6-1.5-2.7-2.5-3.9c-0.7-0.9-1.2-1.8-0.9-3c0.3-1,0.8-2.4,1.8-2.9
		c0.4-0.1,0.4-0.6,0.2-0.9c-0.6-1.3-2.1-1.1-3-0.2C29,6.4,28.1,9,28.3,10.8c0.2,1.9,1.5,3.1,2.6,4.5c2.1,2.8,0.3,5.1-1.6,7.3
		C28.3,23.8,29.6,25.9,31.1,24.9z"/>
	<path d="M40.9,21.3c-1.5,0.9-0.5,3.4,1.2,2.8c3.2-1.1,5.2-4.8,4.5-8c-0.4-1.9-1.8-3.4-3.1-4.8c-1.1-1.1-2.2-2.3-1.6-3.9
		c0.4-1,1.3-1.8,1.9-2.6c0.2-0.4,0-1-0.4-1.1c-3.6-0.7-5.3,4.1-4.3,6.9c0.7,2.1,2.8,3.1,3.9,4.9C44.3,17.9,43,20.1,40.9,21.3z"/>
</g>
</svg>
