<?xml version="1.0" encoding="utf-8"?>
<!-- Generator: Adobe Illustrator 24.0.2, SVG Export Plug-In . SVG Version: 6.00 Build 0)  -->
<svg version="1.1" id="Layer_1" xmlns="http://www.w3.org/2000/svg" xmlns:xlink="http://www.w3.org/1999/xlink" x="0px" y="0px"
	 viewBox="0 0 64 64" style="enable-background:new 0 0 64 64;" xml:space="preserve">
<g>
	<path d="M42.9,2.9C37,1.7,30.7,2,24.8,3.6C12.4,6.8,2.6,17.1,0.6,29.8c-1.9,12.1,0.1,30.8,15.6,32c5.7,0.4,9.6-3.1,12.2-7.8
		c1.2-2.3,2.2-4.8,3.7-6.9c1.8-2.8,4.2-4.1,7.6-4.3c7.6-0.6,16.2-0.9,21.2-7.4c3.5-4.7,4.4-13.1,0.7-17.9c-1.2-1.7-4.1,0-2.8,1.7
		c3,4,2.4,11.2-0.9,14.7c-4.4,4.8-11.8,4.9-17.8,5.3c-5.3,0.4-9.1,2.5-11.7,7.1c-2.1,3.5-3.4,8.2-6.9,10.6
		c-4.1,2.7-10.4,0.3-13.2-3.3c-3.7-5-4.6-12.2-4.2-18.1c0.4-5.8,1.7-11.5,5.1-16.3c3.2-4.5,7.7-8.3,12.8-10.5
		c5.3-2.3,11.5-3,17.2-2.4c3,0.3,6,0.9,8.7,2.2c2.6,1.2,4.8,2.9,7.4,4c0.4,0.1,0.9-0.1,0.8-0.6C54.6,6.4,47.9,3.9,42.9,2.9z"/>
	<path d="M58.1,16.1c0.7-0.1,1.3-0.7,1.3-1.5c0-0.7-0.5-1.2-1.1-1.4c-0.5-0.1-1.2,0-1.6,0.4c-0.2,0.3-0.4,0.6-0.4,0.9
		c0,0.1,0.1,0.3,0.1,0.4s0.1,0.3,0.1,0.4C56.9,15.9,57.5,16.2,58.1,16.1z"/>
	<path d="M17.9,28.5c2.5,0.4,4.8,1.3,6.9,2.7c2,1.4,3.5,3.4,5.5,4.7c0.6,0.4,1.3-0.3,1.2-0.9c-0.4-2.8-3.4-5.3-5.7-6.8
		c-2.7-1.7-5.8-2.7-9-2.9c-6.8-0.4-9.6,5.4-9.4,11.5c0.1,3.4,1,6.7,2.5,9.7c1.3,2.5,3.1,5.6,6.2,6.1c7.9,1.1,7.6-9.8,13-12.3
		c1.4-0.6,0.4-3.2-1.1-2.5c-1.9,0.8-3.4,2.1-4.5,4c-1.3,2-1.9,4.5-3.5,6.3c-5.3,5.9-9-5.6-9.5-9.4c-0.3-2.4-0.4-5.1,0.7-7.4
		C12.5,28.4,15.1,28,17.9,28.5z"/>
	<path d="M48.9,11.9c-6.3-3.5-14.1-4.3-21-2.3c-3.7,1.1-14.3,5.6-9.9,10.9c0.9,1.1,2.2,1.7,3.5,2c1.9,0.5,3.6,1,5.3,1.9
		c3.1,1.7,5.7,4,8,6.6c2.7,3,5.4,5.5,9.7,5.6c3.3,0.1,6.7-1.5,8.6-4.2c0.9-1.4-1.2-3-2.3-1.8c-2.4,2.8-6.1,3.5-9.4,2
		c-2.9-1.4-4.8-4.6-7.1-6.7c-2.4-2.2-5-3.9-8-5.1c-1.3-0.6-2.6-0.9-3.9-1.2c-0.6-0.1-1.5-0.4-1.9-0.9c-0.6-1.1,0.4-1.8,1-2.4
		c5.3-4.8,13.5-5.4,20.1-3.8c3.3,0.8,6.6,2.2,9.1,4.5c1.4,1.3,2.6,2.9,3.2,4.8c0.6,2.2-0.2,4.1-0.2,6.3c0,0.9,1,1.2,1.7,0.6
		c2.5-2.3,2.2-6.7,0.9-9.6C54.6,15.9,51.8,13.5,48.9,11.9z"/>
	<path d="M48.4,21.5c-0.1-0.1-0.1-0.1-0.1-0.2c-1.9-2.2-5.9-1.2-7.3,1.1c-1.7,2.4-0.9,5.5,1.7,7c2.5,1.4,6,1,7.8-1.4
		C52,25.5,50.4,23.1,48.4,21.5z M48.8,25.4c-0.1,0.6-0.8,1.2-1.3,1.4c-1.2,0.6-3.1,0.4-4-0.6c-0.6-0.8-0.4-2,0.3-2.7
		s1.4-0.6,2.3-0.6c0.4,0.5,1,0.9,1.7,0.6C48.4,23.8,49,24.8,48.8,25.4z"/>
</g>
</svg>
