<?xml version="1.0" encoding="utf-8"?>
<!-- Generator: Adobe Illustrator 24.0.2, SVG Export Plug-In . SVG Version: 6.00 Build 0)  -->
<svg version="1.1" id="Layer_1" xmlns="http://www.w3.org/2000/svg" xmlns:xlink="http://www.w3.org/1999/xlink" x="0px" y="0px"
	 viewBox="0 0 64 64" style="enable-background:new 0 0 64 64;" xml:space="preserve">
<g>
	<path d="M40.4,19.9l-3.8-3.3V9.9V3.7C36.6,1.6,35,0,33,0H31c-2,0-3.7,1.6-3.7,3.7v6.2v6.7l-3.8,3.3c-2.2,1.9-3.5,4.8-3.3,7.8
		l1.9,35c0,0.8,0.7,1.4,1.4,1.4h16.9c0.8,0,1.4-0.6,1.4-1.4l1.9-35C43.9,24.7,42.7,21.8,40.4,19.9z M33.7,8.4h-3.4V3.7
		c0-0.4,0.3-0.8,0.8-0.8H33c0.4,0,0.8,0.3,0.8,0.8V8.4z M29.4,18.7h5.2l3.9,3.4c1.6,1.3,2.4,3.4,2.3,5.4l-1.2,22.2
		c0,0-0.1,0.1-0.1,0.1l-3.6,2.9c-0.8-1.3-2.3-2.2-3.9-2.2c-1.6,0-3.1,0.8-3.9,2.2l-3.6-2.9c0,0-0.1,0-0.1-0.1l-1.2-22.3
		c-0.1-2.1,0.8-4.1,2.3-5.4L29.4,18.7z M30.3,11.3h3.4v4.5h-3.4V11.3z M27.9,56.3c0.4,0.3,1,0.4,1.5,0.2c0.5-0.2,0.8-0.8,0.8-1.3
		c0-0.9,0.8-1.7,1.7-1.7c0.9,0,1.7,0.8,1.7,1.7c0,0.6,0.3,1.1,0.8,1.3c0.2,0.1,0.4,0.1,0.6,0.1c0.3,0,0.7-0.1,0.9-0.3l3.4-2.7
		l-0.4,7.5H24.9l-0.4-7.5L27.9,56.3z"/>
	<path d="M37.3,30.6H26.7c-0.8,0-1.4,0.6-1.4,1.4v10.5c0,0.5,0.3,1,0.7,1.2l5.3,3.2c0.2,0.1,0.5,0.2,0.7,0.2c0.3,0,0.5-0.1,0.7-0.2
		l5.3-3.2c0.4-0.3,0.7-0.7,0.7-1.2V32C38.7,31.2,38.1,30.6,37.3,30.6z M35.8,33.4v8.3L32,44l-3.8-2.3v-8.3H35.8z"/>
	<path d="M30.9,37.7h2.1c0.8,0,1.4-0.6,1.4-1.4s-0.6-1.4-1.4-1.4h-2.1c-0.8,0-1.4,0.6-1.4,1.4S30.1,37.7,30.9,37.7z"/>
	<path d="M30.9,41.9h2.1c0.8,0,1.4-0.6,1.4-1.4c0-0.8-0.6-1.4-1.4-1.4h-2.1c-0.8,0-1.4,0.6-1.4,1.4C29.5,41.2,30.1,41.9,30.9,41.9z"
		/>
	<path d="M25.7,27.7c0.3,0.3,0.6,0.4,1,0.4c0,0,0,0,0,0c0.4,0,0.7-0.1,1-0.4c2.3-2.2,6.2-2.2,8.5,0c0.6,0.5,1.5,0.5,2,0
		c0.3-0.3,0.4-0.6,0.4-1c0-0.4-0.2-0.7-0.4-1c-3.5-3.4-9.1-3.4-12.6,0c-0.3,0.3-0.4,0.6-0.4,1C25.3,27.1,25.4,27.5,25.7,27.7z"/>
</g>
</svg>
