<?xml version="1.0" encoding="utf-8"?>
<!-- Generator: Adobe Illustrator 24.0.2, SVG Export Plug-In . SVG Version: 6.00 Build 0)  -->
<svg version="1.1" id="Layer_1" xmlns="http://www.w3.org/2000/svg" xmlns:xlink="http://www.w3.org/1999/xlink" x="0px" y="0px"
	 viewBox="0 0 64 64" style="enable-background:new 0 0 64 64;" xml:space="preserve">
<g>
	<path d="M26,17.7V1.4C26,0.6,25.4,0,24.6,0H14.1c-0.8,0-1.4,0.6-1.4,1.4v16.3l-5.9,5.9c-1,1.2-1.5,2.6-1.5,4.2v30.6
		c0,3.1,2.5,5.6,5.6,5.6h16.9c3.1,0,5.6-2.5,5.6-5.6V27.8c0.1-1.5-0.5-3-1.5-4.2L26,17.7z M15.5,4.2V2.8h7.7v1.4H15.5z M15.5,8.4
		V7.1h7.7v5.6h-7.7v-1.4h2.1V8.4H15.5z M15.5,16.9v-1.4h7.7v1.4H15.5z M15.3,39c1.2-0.8,2.6-1.3,4-1.4c1.4,0.1,2.9,0.6,4.1,1.4
		c1.6,1.1,3.5,1.7,5.5,1.8h1.7v17.6c0,1.5-1.3,2.8-2.8,2.8H10.9c-1.5,0-2.8-1.3-2.8-2.8V40.8l1.8,0C11.8,40.7,13.7,40.1,15.3,39z
		 M19.3,34.8c-1.9,0.1-3.8,0.7-5.4,1.8c-1.2,0.8-2.6,1.3-4,1.4H8.1v-6.6l1.8,0c1.9-0.1,3.8-0.7,5.4-1.8c1.2-0.8,2.6-1.3,4-1.4
		c1.4,0.1,2.9,0.6,4.1,1.4c1.6,1.1,3.5,1.7,5.5,1.8h1.7V38l-1.7,0c-1.5-0.1-2.9-0.6-4.1-1.4C23.2,35.5,21.3,34.9,19.3,34.8z
		 M19.3,25.3c-1.9,0.1-3.8,0.7-5.4,1.8c-1.2,0.8-2.6,1.3-4,1.4H8.1l0-0.7c-0.1-0.8,0.2-1.5,0.6-2.1l5.9-5.9H24l5.9,5.9
		c0.5,0.6,0.7,1.4,0.7,2.2v0.7l-1.7,0c-1.5-0.1-2.9-0.6-4.1-1.4C23.2,26,21.3,25.4,19.3,25.3z"/>
	<path d="M19.3,46.1c3.2,0,5.6-1.5,5.6-3.5c0-2-2.4-3.5-5.6-3.5s-5.6,1.5-5.6,3.5C13.7,44.6,16.1,46.1,19.3,46.1z M16.6,42.5
		c0.3-0.2,1.2-0.7,2.7-0.7c1.5,0,2.4,0.4,2.7,0.7c-0.3,0.2-1.2,0.7-2.7,0.7C17.8,43.2,16.9,42.8,16.6,42.5z"/>
	<rect x="19" y="8.4" width="2.8" height="2.8"/>
	<path d="M12,59.8h2.5v-2.9h-2.1v-4.2H9.5v4.6C9.5,58.7,10.6,59.8,12,59.8z"/>
	<rect x="15.8" y="56.9" width="2.8" height="2.9"/>
	<rect x="13.7" y="47.4" width="11.3" height="2.8"/>
	<rect x="26.4" y="47.4" width="2.8" height="2.8"/>
	<rect x="9.5" y="47.4" width="2.8" height="2.8"/>
	<path d="M57.4,38c0,0-0.1,0-0.1,0H36.2c0,0,0,0,0,0c-0.8,0-1.4,0.6-1.4,1.4c0,0,0,0.1,0,0.1l2.1,23.2c0.1,0.7,0.7,1.3,1.4,1.3
		c0,0,0,0,0,0h16.9c0,0,0,0,0,0c0.7,0,1.4-0.6,1.4-1.3l2.1-23.2C58.8,38.7,58.2,38,57.4,38z M54,59.8l-0.1,1.4H39.6l-0.1-1.4H54z
		 M44.3,53.5v1.4h-1.4v-1.4H44.3z M48.8,49.9l1.1-1.1l1.1,1.1l-1.1,1.1L48.8,49.9z M47.1,56.2v-3.9l1.8,1.8c0.3,0.3,0.6,0.4,1,0.4
		c0.4,0,0.7-0.1,1-0.4l3.2-3.2c0.3-0.3,0.4-0.6,0.4-1c0-0.4-0.1-0.7-0.4-1l-3.2-3.2c-0.5-0.5-1.5-0.5-2,0l-3.2,3.2
		c-0.3,0.3-0.4,0.6-0.4,1c0,0.2,0.1,0.5,0.2,0.7h-4c-0.8,0-1.4,0.6-1.4,1.4v4.2c0,0.2,0.1,0.5,0.2,0.7h-1L38.2,45h17.2l-1.1,11.9H47
		C47.1,56.7,47.1,56.5,47.1,56.2z M45.7,57.3L45.7,57.3L45.7,57.3C45.7,57.3,45.7,57.3,45.7,57.3z M55.7,40.8l-0.1,1.4H37.9
		l-0.1-1.4H55.7z"/>
</g>
</svg>
